<svg xmlns="http://www.w3.org/2000/svg" xmlns:xlink="http://www.w3.org/1999/xlink" contentStyleType="text/css" data-diagram-type="CLASS" height="392px" preserveAspectRatio="none" style="width:1168px;height:392px;background:#FFFFFF;" version="1.1" viewBox="0 0 1168 392" width="1168px" zoomAndPan="magnify"><defs/><g><!--class ProductA--><g class="entity" data-entity="ProductA" data-source-line="1" data-uid="ent0002" id="entity_ProductA"><rect fill="#F1F1F1" height="67.0679" rx="2.5" ry="2.5" style="stroke:#181818;stroke-width:0.5;" width="88.4618" x="262.77" y="318"/><ellipse cx="277.77" cy="334" fill="#B4A7E5" rx="11" ry="11" style="stroke:#181818;stroke-width:1;"/><path d="M273.6919,329.7656 L273.6919,327.6094 L281.0825,327.6094 L281.0825,329.7656 L278.6138,329.7656 L278.6138,337.8438 L281.0825,337.8438 L281.0825,340 L273.6919,340 L273.6919,337.8438 L276.1606,337.8438 L276.1606,329.7656 L273.6919,329.7656 Z " fill="#000000"/><text fill="#000000" font-family="sans-serif" font-size="14" font-style="italic" lengthAdjust="spacing" textLength="56.4618" x="291.77" y="339.432">ProductA</text><line style="stroke:#181818;stroke-width:0.5;" x1="263.77" x2="350.2318" y1="350" y2="350"/><line style="stroke:#181818;stroke-width:0.5;" x1="263.77" x2="350.2318" y1="358" y2="358"/><ellipse cx="273.77" cy="373.034" fill="#84BE84" rx="3" ry="3" style="stroke:#038048;stroke-width:1;"/><text fill="#000000" font-family="sans-serif" font-size="14" lengthAdjust="spacing" textLength="43.2318" x="282.77" y="376.9659">show()</text></g><!--class ProductB--><g class="entity" data-entity="ProductB" data-source-line="7" data-uid="ent0003" id="entity_ProductB"><rect fill="#F1F1F1" height="67.0679" rx="2.5" ry="2.5" style="stroke:#181818;stroke-width:0.5;" width="88.9938" x="816.27" y="318"/><ellipse cx="831.27" cy="334" fill="#B4A7E5" rx="11" ry="11" style="stroke:#181818;stroke-width:1;"/><path d="M827.1919,329.7656 L827.1919,327.6094 L834.5825,327.6094 L834.5825,329.7656 L832.1138,329.7656 L832.1138,337.8438 L834.5825,337.8438 L834.5825,340 L827.1919,340 L827.1919,337.8438 L829.6606,337.8438 L829.6606,329.7656 L827.1919,329.7656 Z " fill="#000000"/><text fill="#000000" font-family="sans-serif" font-size="14" font-style="italic" lengthAdjust="spacing" textLength="56.9938" x="845.27" y="339.432">ProductB</text><line style="stroke:#181818;stroke-width:0.5;" x1="817.27" x2="904.2638" y1="350" y2="350"/><line style="stroke:#181818;stroke-width:0.5;" x1="817.27" x2="904.2638" y1="358" y2="358"/><ellipse cx="827.27" cy="373.034" fill="#84BE84" rx="3" ry="3" style="stroke:#038048;stroke-width:1;"/><text fill="#000000" font-family="sans-serif" font-size="14" lengthAdjust="spacing" textLength="31.6539" x="836.27" y="376.9659">use()</text></g><!--class ProductAVariant1--><g class="entity" data-entity="ProductAVariant1" data-source-line="13" data-uid="ent0004" id="entity_ProductAVariant1"><rect fill="#F1F1F1" height="86.1358" rx="2.5" ry="2.5" style="stroke:#181818;stroke-width:0.5;" width="150.3195" x="46.77" y="172"/><ellipse cx="62.85" cy="188" fill="#ADD1B2" rx="11" ry="11" style="stroke:#181818;stroke-width:1;"/><path d="M65.8187,193.6406 Q65.2406,193.9375 64.6,194.0781 Q63.9594,194.2344 63.2562,194.2344 Q60.7562,194.2344 59.4281,192.5938 Q58.1156,190.9375 58.1156,187.8125 Q58.1156,184.6875 59.4281,183.0313 Q60.7562,181.375 63.2562,181.375 Q63.9594,181.375 64.6,181.5313 Q65.2562,181.6875 65.8187,181.9844 L65.8187,184.7031 Q65.1937,184.125 64.6,183.8594 Q64.0062,183.5781 63.3812,183.5781 Q62.0375,183.5781 61.35,184.6563 Q60.6625,185.7188 60.6625,187.8125 Q60.6625,189.9063 61.35,190.9844 Q62.0375,192.0469 63.3812,192.0469 Q64.0062,192.0469 64.6,191.7813 Q65.1937,191.5 65.8187,190.9219 L65.8187,193.6406 Z " fill="#000000"/><text fill="#000000" font-family="sans-serif" font-size="14" lengthAdjust="spacing" textLength="115.9196" x="77.09" y="193.432">ProductAVariant1</text><line style="stroke:#181818;stroke-width:0.5;" x1="47.77" x2="196.0895" y1="204" y2="204"/><line style="stroke:#181818;stroke-width:0.5;" x1="47.77" x2="196.0895" y1="212" y2="212"/><text fill="#000000" font-family="sans-serif" font-size="14" lengthAdjust="spacing" textLength="124.3195" x="66.77" y="230.9659">ProductAVariant1()</text><ellipse cx="57.77" cy="246.1019" fill="#84BE84" rx="3" ry="3" style="stroke:#038048;stroke-width:1;"/><text fill="#000000" font-family="sans-serif" font-size="14" lengthAdjust="spacing" textLength="43.2318" x="66.77" y="250.0339">show()</text></g><!--class ProductBVariant1--><g class="entity" data-entity="ProductBVariant1" data-source-line="20" data-uid="ent0006" id="entity_ProductBVariant1"><rect fill="#F1F1F1" height="86.1358" rx="2.5" ry="2.5" style="stroke:#181818;stroke-width:0.5;" width="150.4735" x="785.77" y="172"/><ellipse cx="801.85" cy="188" fill="#ADD1B2" rx="11" ry="11" style="stroke:#181818;stroke-width:1;"/><path d="M804.8187,193.6406 Q804.2406,193.9375 803.6,194.0781 Q802.9594,194.2344 802.2562,194.2344 Q799.7562,194.2344 798.4281,192.5938 Q797.1156,190.9375 797.1156,187.8125 Q797.1156,184.6875 798.4281,183.0313 Q799.7562,181.375 802.2562,181.375 Q802.9594,181.375 803.6,181.5313 Q804.2562,181.6875 804.8187,181.9844 L804.8187,184.7031 Q804.1937,184.125 803.6,183.8594 Q803.0062,183.5781 802.3812,183.5781 Q801.0375,183.5781 800.35,184.6563 Q799.6625,185.7188 799.6625,187.8125 Q799.6625,189.9063 800.35,190.9844 Q801.0375,192.0469 802.3812,192.0469 Q803.0062,192.0469 803.6,191.7813 Q804.1937,191.5 804.8187,190.9219 L804.8187,193.6406 Z " fill="#000000"/><text fill="#000000" font-family="sans-serif" font-size="14" lengthAdjust="spacing" textLength="116.0736" x="816.09" y="193.432">ProductBVariant1</text><line style="stroke:#181818;stroke-width:0.5;" x1="786.77" x2="935.2435" y1="204" y2="204"/><line style="stroke:#181818;stroke-width:0.5;" x1="786.77" x2="935.2435" y1="212" y2="212"/><text fill="#000000" font-family="sans-serif" font-size="14" lengthAdjust="spacing" textLength="124.4735" x="805.77" y="230.9659">ProductBVariant1()</text><ellipse cx="796.77" cy="246.1019" fill="#84BE84" rx="3" ry="3" style="stroke:#038048;stroke-width:1;"/><text fill="#000000" font-family="sans-serif" font-size="14" lengthAdjust="spacing" textLength="31.6539" x="805.77" y="250.0339">use()</text></g><!--class ProductAVariant2--><g class="entity" data-entity="ProductAVariant2" data-source-line="27" data-uid="ent0008" id="entity_ProductAVariant2"><rect fill="#F1F1F1" height="86.1358" rx="2.5" ry="2.5" style="stroke:#181818;stroke-width:0.5;" width="150.3195" x="231.77" y="172"/><ellipse cx="247.85" cy="188" fill="#ADD1B2" rx="11" ry="11" style="stroke:#181818;stroke-width:1;"/><path d="M250.8187,193.6406 Q250.2406,193.9375 249.6,194.0781 Q248.9594,194.2344 248.2562,194.2344 Q245.7562,194.2344 244.4281,192.5938 Q243.1156,190.9375 243.1156,187.8125 Q243.1156,184.6875 244.4281,183.0313 Q245.7562,181.375 248.2562,181.375 Q248.9594,181.375 249.6,181.5313 Q250.2562,181.6875 250.8187,181.9844 L250.8187,184.7031 Q250.1937,184.125 249.6,183.8594 Q249.0062,183.5781 248.3812,183.5781 Q247.0375,183.5781 246.35,184.6563 Q245.6625,185.7188 245.6625,187.8125 Q245.6625,189.9063 246.35,190.9844 Q247.0375,192.0469 248.3812,192.0469 Q249.0062,192.0469 249.6,191.7813 Q250.1937,191.5 250.8187,190.9219 L250.8187,193.6406 Z " fill="#000000"/><text fill="#000000" font-family="sans-serif" font-size="14" lengthAdjust="spacing" textLength="115.9196" x="262.09" y="193.432">ProductAVariant2</text><line style="stroke:#181818;stroke-width:0.5;" x1="232.77" x2="381.0895" y1="204" y2="204"/><line style="stroke:#181818;stroke-width:0.5;" x1="232.77" x2="381.0895" y1="212" y2="212"/><text fill="#000000" font-family="sans-serif" font-size="14" lengthAdjust="spacing" textLength="124.3195" x="251.77" y="230.9659">ProductAVariant2()</text><ellipse cx="242.77" cy="246.1019" fill="#84BE84" rx="3" ry="3" style="stroke:#038048;stroke-width:1;"/><text fill="#000000" font-family="sans-serif" font-size="14" lengthAdjust="spacing" textLength="43.2318" x="251.77" y="250.0339">show()</text></g><!--class ProductBVariant2--><g class="entity" data-entity="ProductBVariant2" data-source-line="34" data-uid="ent0010" id="entity_ProductBVariant2"><rect fill="#F1F1F1" height="86.1358" rx="2.5" ry="2.5" style="stroke:#181818;stroke-width:0.5;" width="150.4735" x="970.77" y="172"/><ellipse cx="986.85" cy="188" fill="#ADD1B2" rx="11" ry="11" style="stroke:#181818;stroke-width:1;"/><path d="M989.8187,193.6406 Q989.2406,193.9375 988.6,194.0781 Q987.9594,194.2344 987.2562,194.2344 Q984.7562,194.2344 983.4281,192.5938 Q982.1156,190.9375 982.1156,187.8125 Q982.1156,184.6875 983.4281,183.0313 Q984.7562,181.375 987.2562,181.375 Q987.9594,181.375 988.6,181.5313 Q989.2562,181.6875 989.8187,181.9844 L989.8187,184.7031 Q989.1937,184.125 988.6,183.8594 Q988.0062,183.5781 987.3812,183.5781 Q986.0375,183.5781 985.35,184.6563 Q984.6625,185.7188 984.6625,187.8125 Q984.6625,189.9063 985.35,190.9844 Q986.0375,192.0469 987.3812,192.0469 Q988.0062,192.0469 988.6,191.7813 Q989.1937,191.5 989.8187,190.9219 L989.8187,193.6406 Z " fill="#000000"/><text fill="#000000" font-family="sans-serif" font-size="14" lengthAdjust="spacing" textLength="116.0736" x="1001.09" y="193.432">ProductBVariant2</text><line style="stroke:#181818;stroke-width:0.5;" x1="971.77" x2="1120.2435" y1="204" y2="204"/><line style="stroke:#181818;stroke-width:0.5;" x1="971.77" x2="1120.2435" y1="212" y2="212"/><text fill="#000000" font-family="sans-serif" font-size="14" lengthAdjust="spacing" textLength="124.4735" x="990.77" y="230.9659">ProductBVariant2()</text><ellipse cx="981.77" cy="246.1019" fill="#84BE84" rx="3" ry="3" style="stroke:#038048;stroke-width:1;"/><text fill="#000000" font-family="sans-serif" font-size="14" lengthAdjust="spacing" textLength="31.6539" x="990.77" y="250.0339">use()</text></g><!--class AbstractFactory--><g class="entity" data-entity="AbstractFactory" data-source-line="41" data-uid="ent0012" id="entity_AbstractFactory"><rect fill="#F1F1F1" height="86.1358" rx="2.5" ry="2.5" style="stroke:#181818;stroke-width:0.5;" width="191.0594" x="417.27" y="172"/><ellipse cx="460.2887" cy="188" fill="#B4A7E5" rx="11" ry="11" style="stroke:#181818;stroke-width:1;"/><path d="M456.2106,183.7656 L456.2106,181.6094 L463.6012,181.6094 L463.6012,183.7656 L461.1324,183.7656 L461.1324,191.8438 L463.6012,191.8438 L463.6012,194 L456.2106,194 L456.2106,191.8438 L458.6793,191.8438 L458.6793,183.7656 L456.2106,183.7656 Z " fill="#000000"/><text fill="#000000" font-family="sans-serif" font-size="14" font-style="italic" lengthAdjust="spacing" textLength="96.7956" x="480.5151" y="193.432">AbstractFactory</text><line style="stroke:#181818;stroke-width:0.5;" x1="418.27" x2="607.3294" y1="204" y2="204"/><line style="stroke:#181818;stroke-width:0.5;" x1="418.27" x2="607.3294" y1="212" y2="212"/><ellipse cx="428.27" cy="227.034" fill="#84BE84" rx="3" ry="3" style="stroke:#038048;stroke-width:1;"/><text fill="#000000" font-family="sans-serif" font-size="14" lengthAdjust="spacing" textLength="164.7514" x="437.27" y="230.9659">newProductA(): ProductA</text><ellipse cx="428.27" cy="246.1019" fill="#84BE84" rx="3" ry="3" style="stroke:#038048;stroke-width:1;"/><text fill="#000000" font-family="sans-serif" font-size="14" lengthAdjust="spacing" textLength="165.0594" x="437.27" y="250.0339">newProductB(): ProductB</text></g><!--class FactoryVariant1--><g class="entity" data-entity="FactoryVariant1" data-source-line="48" data-uid="ent0013" id="entity_FactoryVariant1"><rect fill="#F1F1F1" height="105.2038" rx="2.5" ry="2.5" style="stroke:#181818;stroke-width:0.5;" width="191.0594" x="640.27" y="7"/><ellipse cx="680.271" cy="23" fill="#ADD1B2" rx="11" ry="11" style="stroke:#181818;stroke-width:1;"/><path d="M683.2397,28.6406 Q682.6616,28.9375 682.021,29.0781 Q681.3804,29.2344 680.6772,29.2344 Q678.1772,29.2344 676.8491,27.5938 Q675.5366,25.9375 675.5366,22.8125 Q675.5366,19.6875 676.8491,18.0313 Q678.1772,16.375 680.6772,16.375 Q681.3804,16.375 682.021,16.5313 Q682.6772,16.6875 683.2397,16.9844 L683.2397,19.7031 Q682.6147,19.125 682.021,18.8594 Q681.4272,18.5781 680.8022,18.5781 Q679.4585,18.5781 678.771,19.6563 Q678.0835,20.7188 678.0835,22.8125 Q678.0835,24.9063 678.771,25.9844 Q679.4585,27.0469 680.8022,27.0469 Q681.4272,27.0469 682.021,26.7813 Q682.6147,26.5 683.2397,25.9219 L683.2397,28.6406 Z " fill="#000000"/><text fill="#000000" font-family="sans-serif" font-size="14" lengthAdjust="spacing" textLength="103.5016" x="699.8268" y="28.432">FactoryVariant1</text><line style="stroke:#181818;stroke-width:0.5;" x1="641.27" x2="830.3294" y1="39" y2="39"/><line style="stroke:#181818;stroke-width:0.5;" x1="641.27" x2="830.3294" y1="47" y2="47"/><text fill="#000000" font-family="sans-serif" font-size="14" lengthAdjust="spacing" textLength="111.9016" x="660.27" y="65.9659">FactoryVariant1()</text><ellipse cx="651.27" cy="81.1019" fill="#84BE84" rx="3" ry="3" style="stroke:#038048;stroke-width:1;"/><text fill="#000000" font-family="sans-serif" font-size="14" lengthAdjust="spacing" textLength="164.7514" x="660.27" y="85.0339">newProductA(): ProductA</text><ellipse cx="651.27" cy="100.1698" fill="#84BE84" rx="3" ry="3" style="stroke:#038048;stroke-width:1;"/><text fill="#000000" font-family="sans-serif" font-size="14" lengthAdjust="spacing" textLength="165.0594" x="660.27" y="104.1018">newProductB(): ProductB</text></g><!--class FactoryVariant2--><g class="entity" data-entity="FactoryVariant2" data-source-line="56" data-uid="ent0015" id="entity_FactoryVariant2"><rect fill="#F1F1F1" height="105.2038" rx="2.5" ry="2.5" style="stroke:#181818;stroke-width:0.5;" width="191.0594" x="414.27" y="7"/><ellipse cx="454.271" cy="23" fill="#ADD1B2" rx="11" ry="11" style="stroke:#181818;stroke-width:1;"/><path d="M457.2397,28.6406 Q456.6616,28.9375 456.021,29.0781 Q455.3804,29.2344 454.6772,29.2344 Q452.1772,29.2344 450.8491,27.5938 Q449.5366,25.9375 449.5366,22.8125 Q449.5366,19.6875 450.8491,18.0313 Q452.1772,16.375 454.6772,16.375 Q455.3804,16.375 456.021,16.5313 Q456.6772,16.6875 457.2397,16.9844 L457.2397,19.7031 Q456.6147,19.125 456.021,18.8594 Q455.4272,18.5781 454.8022,18.5781 Q453.4585,18.5781 452.771,19.6563 Q452.0835,20.7188 452.0835,22.8125 Q452.0835,24.9063 452.771,25.9844 Q453.4585,27.0469 454.8022,27.0469 Q455.4272,27.0469 456.021,26.7813 Q456.6147,26.5 457.2397,25.9219 L457.2397,28.6406 Z " fill="#000000"/><text fill="#000000" font-family="sans-serif" font-size="14" lengthAdjust="spacing" textLength="103.5016" x="473.8268" y="28.432">FactoryVariant2</text><line style="stroke:#181818;stroke-width:0.5;" x1="415.27" x2="604.3294" y1="39" y2="39"/><line style="stroke:#181818;stroke-width:0.5;" x1="415.27" x2="604.3294" y1="47" y2="47"/><text fill="#000000" font-family="sans-serif" font-size="14" lengthAdjust="spacing" textLength="111.9016" x="434.27" y="65.9659">FactoryVariant2()</text><ellipse cx="425.27" cy="81.1019" fill="#84BE84" rx="3" ry="3" style="stroke:#038048;stroke-width:1;"/><text fill="#000000" font-family="sans-serif" font-size="14" lengthAdjust="spacing" textLength="164.7514" x="434.27" y="85.0339">newProductA(): ProductA</text><ellipse cx="425.27" cy="100.1698" fill="#84BE84" rx="3" ry="3" style="stroke:#038048;stroke-width:1;"/><text fill="#000000" font-family="sans-serif" font-size="14" lengthAdjust="spacing" textLength="165.0594" x="434.27" y="104.1018">newProductB(): ProductB</text></g><!--link ProductAVariant1 to ProductA--><g class="link" data-entity-1="ProductAVariant1" data-entity-2="ProductA" data-source-line="18" data-uid="lnk5" id="link_ProductAVariant1_ProductA"><path codeLine="18" d="M179.55,258 C206.37,277.5 223.1915,289.7346 248.0715,307.8246" fill="none" id="ProductAVariant1-to-ProductA" style="stroke:#181818;stroke-width:1;stroke-dasharray:7,7;"/><polygon fill="none" points="262.63,318.41,251.5999,302.9718,244.543,312.6775,262.63,318.41" style="stroke:#181818;stroke-width:1;"/></g><!--link ProductBVariant1 to ProductB--><g class="link" data-entity-1="ProductBVariant1" data-entity-2="ProductB" data-source-line="25" data-uid="lnk7" id="link_ProductBVariant1_ProductB"><path codeLine="25" d="M860.77,258.19 C860.77,277.45 860.77,281.91 860.77,299.85" fill="none" id="ProductBVariant1-to-ProductB" style="stroke:#181818;stroke-width:1;stroke-dasharray:7,7;"/><polygon fill="none" points="860.77,317.85,866.77,299.85,854.77,299.85,860.77,317.85" style="stroke:#181818;stroke-width:1;"/></g><!--link ProductAVariant2 to ProductA--><g class="link" data-entity-1="ProductAVariant2" data-entity-2="ProductA" data-source-line="32" data-uid="lnk9" id="link_ProductAVariant2_ProductA"><path codeLine="32" d="M306.77,258.19 C306.77,277.45 306.77,281.91 306.77,299.85" fill="none" id="ProductAVariant2-to-ProductA" style="stroke:#181818;stroke-width:1;stroke-dasharray:7,7;"/><polygon fill="none" points="306.77,317.85,312.77,299.85,300.77,299.85,306.77,317.85" style="stroke:#181818;stroke-width:1;"/></g><!--link ProductBVariant2 to ProductB--><g class="link" data-entity-1="ProductBVariant2" data-entity-2="ProductB" data-source-line="39" data-uid="lnk11" id="link_ProductBVariant2_ProductB"><path codeLine="39" d="M988,258 C961.39,277.35 944.8498,289.3764 920.0598,307.3964" fill="none" id="ProductBVariant2-to-ProductB" style="stroke:#181818;stroke-width:1;stroke-dasharray:7,7;"/><polygon fill="none" points="905.5,317.98,923.5877,312.2497,916.5319,302.5431,905.5,317.98" style="stroke:#181818;stroke-width:1;"/></g><!--link FactoryVariant1 to AbstractFactory--><g class="link" data-entity-1="FactoryVariant1" data-entity-2="AbstractFactory" data-source-line="54" data-uid="lnk14" id="link_FactoryVariant1_AbstractFactory"><path codeLine="54" d="M660.9,112.04 C632.68,131.46 615.7665,143.1033 588.9365,161.5733" fill="none" id="FactoryVariant1-to-AbstractFactory" style="stroke:#181818;stroke-width:1;stroke-dasharray:7,7;"/><polygon fill="none" points="574.11,171.78,592.3387,166.5155,585.5342,156.6312,574.11,171.78" style="stroke:#181818;stroke-width:1;"/></g><!--link FactoryVariant2 to AbstractFactory--><g class="link" data-entity-1="FactoryVariant2" data-entity-2="AbstractFactory" data-source-line="62" data-uid="lnk16" id="link_FactoryVariant2_AbstractFactory"><path codeLine="62" d="M510.78,112.04 C511.16,131.38 511.2283,135.1134 511.5883,153.5334" fill="none" id="FactoryVariant2-to-AbstractFactory" style="stroke:#181818;stroke-width:1;stroke-dasharray:7,7;"/><polygon fill="none" points="511.94,171.53,517.5871,153.4162,505.5894,153.6507,511.94,171.53" style="stroke:#181818;stroke-width:1;"/></g><!--link AbstractFactory to ProductA--><g class="link" data-entity-1="AbstractFactory" data-entity-2="ProductA" data-source-line="64" data-uid="lnk17" id="link_AbstractFactory_ProductA"><path codeLine="64" d="M448.44,258 C416.8,278.66 384.4934,299.7489 356.0934,318.2989" fill="none" id="AbstractFactory-to-ProductA" style="stroke:#181818;stroke-width:1;stroke-dasharray:7,7;"/><polygon fill="#181818" points="351.07,321.58,360.7925,320.0072,355.2561,318.8457,356.4177,313.3094,351.07,321.58" style="stroke:#181818;stroke-width:1;"/></g><!--link AbstractFactory to ProductB--><g class="link" data-entity-1="AbstractFactory" data-entity-2="ProductB" data-source-line="65" data-uid="lnk18" id="link_AbstractFactory_ProductB"><path codeLine="65" d="M608.33,252.93 C676.13,279.14 758.4533,310.9573 810.6233,331.1173" fill="none" id="AbstractFactory-to-ProductB" style="stroke:#181818;stroke-width:1;stroke-dasharray:7,7;"/><polygon fill="#181818" points="816.22,333.28,809.2668,326.3048,811.5561,331.4777,806.3832,333.767,816.22,333.28" style="stroke:#181818;stroke-width:1;"/></g><!--link FactoryVariant1 to ProductA--><g class="link" data-entity-1="FactoryVariant1" data-entity-2="ProductA" data-source-line="66" data-uid="lnk19" id="link_FactoryVariant1_ProductA"><path codeLine="66" d="M719.66,112.08 C703.06,156.94 672.9,220.47 625.77,258 C543.78,323.28 423.3984,341.9813 356.9984,347.6313" fill="none" id="FactoryVariant1-to-ProductA" style="stroke:#181818;stroke-width:1;stroke-dasharray:7,7;"/><polygon fill="#181818" points="351.02,348.14,360.3267,351.3625,356.002,347.7161,359.6485,343.3913,351.02,348.14" style="stroke:#181818;stroke-width:1;"/></g><!--link FactoryVariant1 to ProductB--><g class="link" data-entity-1="FactoryVariant1" data-entity-2="ProductB" data-source-line="67" data-uid="lnk20" id="link_FactoryVariant1_ProductB"><path codeLine="67" d="M831.37,73.54 C938.38,90.32 1101.68,123.26 1138.77,172 C1161.92,202.42 1161.13,227 1138.77,258 C1085.14,332.36 975.2048,347.6205 911.2948,350.2805" fill="none" id="FactoryVariant1-to-ProductB" style="stroke:#181818;stroke-width:1;stroke-dasharray:7,7;"/><polygon fill="#181818" points="905.3,350.53,914.4586,354.1523,910.2957,350.3221,914.1259,346.1592,905.3,350.53" style="stroke:#181818;stroke-width:1;"/></g><!--link FactoryVariant2 to ProductA--><g class="link" data-entity-1="FactoryVariant2" data-entity-2="ProductA" data-source-line="68" data-uid="lnk21" id="link_FactoryVariant2_ProductA"><path codeLine="68" d="M414.04,68.89 C288,82.15 76.83,112.76 29.77,172 C6,201.93 7.43,226.99 29.77,258 C83.26,332.26 193.0354,347.5256 256.6654,350.2256" fill="none" id="FactoryVariant2-to-ProductA" style="stroke:#181818;stroke-width:1;stroke-dasharray:7,7;"/><polygon fill="#181818" points="262.66,350.48,253.8377,346.102,257.6645,350.268,253.4985,354.0949,262.66,350.48" style="stroke:#181818;stroke-width:1;"/></g><!--link FactoryVariant2 to ProductB--><g class="link" data-entity-1="FactoryVariant2" data-entity-2="ProductB" data-source-line="69" data-uid="lnk22" id="link_FactoryVariant2_ProductB"><path codeLine="69" d="M572.12,112.01 C644.22,171.58 756.1145,264.0284 816.7045,314.0884" fill="none" id="FactoryVariant2-to-ProductB" style="stroke:#181818;stroke-width:1;stroke-dasharray:7,7;"/><polygon fill="#181818" points="821.33,317.91,816.9395,309.0939,817.4754,314.7253,811.844,315.2612,821.33,317.91" style="stroke:#181818;stroke-width:1;"/></g><!--SRC=[hP4n2y8m48Nt_8gCBKB16ns4tk3iv1vZn82qaAGKKV-x0TiqFTDMn42MU-zUlilfoYbp5bBnlQbFZNGbkpFkpuhRIzrcENionZHrON0rLdKcUHNMXfY3C5fKRjqPQTdta5UeWnV5OpjGZUCn7OyVyJqUDOpISG8Uql2m20zVmKCQ7fRWWS8FwocFrXaXtSxVsjp2bYhLzZ1PlXd0g8gHYj5MkppowwGQk7zzZUIznwGZ9OaWIGH_9e898bBmhcZtCo8c9euwPqHCa4rsZaHy0G00]--></g></svg>