<svg xmlns="http://www.w3.org/2000/svg" xmlns:xlink="http://www.w3.org/1999/xlink" contentStyleType="text/css" data-diagram-type="CLASS" height="246px" preserveAspectRatio="none" style="width:600px;height:246px;background:#FFFFFF;" version="1.1" viewBox="0 0 600 246" width="600px" zoomAndPan="magnify"><defs/><g><!--class AbstractDependency--><g class="entity" data-entity="AbstractDependency" data-source-line="1" data-uid="ent0002" id="entity_AbstractDependency"><rect fill="#F1F1F1" height="67.0679" rx="2.5" ry="2.5" style="stroke:#181818;stroke-width:0.5;" width="166.4614" x="68" y="172"/><ellipse cx="86.4551" cy="188" fill="#B4A7E5" rx="11" ry="11" style="stroke:#181818;stroke-width:1;"/><path d="M82.3769,183.7656 L82.3769,181.6094 L89.7676,181.6094 L89.7676,183.7656 L87.2988,183.7656 L87.2988,191.8438 L89.7676,191.8438 L89.7676,194 L82.3769,194 L82.3769,191.8438 L84.8457,191.8438 L84.8457,183.7656 L82.3769,183.7656 Z " fill="#000000"/><text fill="#000000" font-family="sans-serif" font-size="14" font-style="italic" lengthAdjust="spacing" textLength="126.7835" x="101.2228" y="193.432">AbstractDependency</text><line style="stroke:#181818;stroke-width:0.5;" x1="69" x2="233.4614" y1="204" y2="204"/><line style="stroke:#181818;stroke-width:0.5;" x1="69" x2="233.4614" y1="212" y2="212"/><ellipse cx="79" cy="227.034" fill="#84BE84" rx="3" ry="3" style="stroke:#038048;stroke-width:1;"/><text fill="#000000" font-family="sans-serif" font-size="14" lengthAdjust="spacing" textLength="140.4614" x="88" y="230.9659">dependencyMethod()</text></g><!--class RealDependency--><g class="entity" data-entity="RealDependency" data-source-line="7" data-uid="ent0003" id="entity_RealDependency"><rect fill="#F1F1F1" height="86.1358" rx="2.5" ry="2.5" style="stroke:#181818;stroke-width:0.5;" width="166.4614" x="7" y="16.5"/><ellipse cx="32.845" cy="32.5" fill="#ADD1B2" rx="11" ry="11" style="stroke:#181818;stroke-width:1;"/><path d="M35.8137,38.1406 Q35.2356,38.4375 34.595,38.5781 Q33.9543,38.7344 33.2512,38.7344 Q30.7512,38.7344 29.4231,37.0938 Q28.1106,35.4375 28.1106,32.3125 Q28.1106,29.1875 29.4231,27.5313 Q30.7512,25.875 33.2512,25.875 Q33.9543,25.875 34.595,26.0313 Q35.2512,26.1875 35.8137,26.4844 L35.8137,29.2031 Q35.1887,28.625 34.595,28.3594 Q34.0012,28.0781 33.3762,28.0781 Q32.0325,28.0781 31.345,29.1563 Q30.6575,30.2188 30.6575,32.3125 Q30.6575,34.4063 31.345,35.4844 Q32.0325,36.5469 33.3762,36.5469 Q34.0012,36.5469 34.595,36.2813 Q35.1887,36 35.8137,35.4219 L35.8137,38.1406 Z " fill="#000000"/><text fill="#000000" font-family="sans-serif" font-size="14" lengthAdjust="spacing" textLength="110.3615" x="49.2549" y="37.932">RealDependency</text><line style="stroke:#181818;stroke-width:0.5;" x1="8" x2="172.4614" y1="48.5" y2="48.5"/><line style="stroke:#181818;stroke-width:0.5;" x1="8" x2="172.4614" y1="56.5" y2="56.5"/><text fill="#000000" font-family="sans-serif" font-size="14" lengthAdjust="spacing" textLength="118.7615" x="27" y="75.4659">RealDependency()</text><ellipse cx="18" cy="90.6019" fill="#84BE84" rx="3" ry="3" style="stroke:#038048;stroke-width:1;"/><text fill="#000000" font-family="sans-serif" font-size="14" lengthAdjust="spacing" textLength="140.4614" x="27" y="94.5339">dependencyMethod()</text></g><!--class RequiredInterface--><g class="entity" data-entity="RequiredInterface" data-source-line="14" data-uid="ent0005" id="entity_RequiredInterface"><rect fill="#F1F1F1" height="67.0679" rx="2.5" ry="2.5" style="stroke:#181818;stroke-width:0.5;" width="143.0756" x="329.5" y="172"/><ellipse cx="344.5" cy="188" fill="#B4A7E5" rx="11" ry="11" style="stroke:#181818;stroke-width:1;"/><path d="M340.4219,183.7656 L340.4219,181.6094 L347.8125,181.6094 L347.8125,183.7656 L345.3438,183.7656 L345.3438,191.8438 L347.8125,191.8438 L347.8125,194 L340.4219,194 L340.4219,191.8438 L342.8906,191.8438 L342.8906,183.7656 L340.4219,183.7656 Z " fill="#000000"/><text fill="#000000" font-family="sans-serif" font-size="14" font-style="italic" lengthAdjust="spacing" textLength="111.0756" x="358.5" y="193.432">RequiredInterface</text><line style="stroke:#181818;stroke-width:0.5;" x1="330.5" x2="471.5756" y1="204" y2="204"/><line style="stroke:#181818;stroke-width:0.5;" x1="330.5" x2="471.5756" y1="212" y2="212"/><ellipse cx="340.5" cy="227.034" fill="#84BE84" rx="3" ry="3" style="stroke:#038048;stroke-width:1;"/><text fill="#000000" font-family="sans-serif" font-size="14" lengthAdjust="spacing" textLength="116.6196" x="349.5" y="230.9659">requiredMethod()</text></g><!--class Adapter--><g class="entity" data-entity="Adapter" data-source-line="20" data-uid="ent0006" id="entity_Adapter"><rect fill="#F1F1F1" height="105.2038" rx="2.5" ry="2.5" style="stroke:#181818;stroke-width:0.5;" width="385.0705" x="208.5" y="7"/><ellipse cx="370.4094" cy="23" fill="#ADD1B2" rx="11" ry="11" style="stroke:#181818;stroke-width:1;"/><path d="M373.3781,28.6406 Q372.8,28.9375 372.1594,29.0781 Q371.5187,29.2344 370.8156,29.2344 Q368.3156,29.2344 366.9875,27.5938 Q365.675,25.9375 365.675,22.8125 Q365.675,19.6875 366.9875,18.0313 Q368.3156,16.375 370.8156,16.375 Q371.5187,16.375 372.1594,16.5313 Q372.8156,16.6875 373.3781,16.9844 L373.3781,19.7031 Q372.7531,19.125 372.1594,18.8594 Q371.5656,18.5781 370.9406,18.5781 Q369.5969,18.5781 368.9094,19.6563 Q368.2219,20.7188 368.2219,22.8125 Q368.2219,24.9063 368.9094,25.9844 Q369.5969,27.0469 370.9406,27.0469 Q371.5656,27.0469 372.1594,26.7813 Q372.7531,26.5 373.3781,25.9219 L373.3781,28.6406 Z " fill="#000000"/><text fill="#000000" font-family="sans-serif" font-size="14" lengthAdjust="spacing" textLength="52.7518" x="390.9094" y="28.432">Adapter</text><line style="stroke:#181818;stroke-width:0.5;" x1="209.5" x2="592.5705" y1="39" y2="39"/><rect fill="none" height="6" style="stroke:#C82930;stroke-width:1;" width="6" x="216.5" y="51.034"/><text fill="#000000" font-family="sans-serif" font-size="14" lengthAdjust="spacing" textLength="297.9188" x="228.5" y="57.9659">embeddedDependency: AbstractDependency</text><line style="stroke:#181818;stroke-width:0.5;" x1="209.5" x2="592.5705" y1="66.0679" y2="66.0679"/><text fill="#000000" font-family="sans-serif" font-size="14" lengthAdjust="spacing" textLength="359.0705" x="228.5" y="85.0339">Adapter(embeddedDependency: AbstractDependency)</text><ellipse cx="219.5" cy="100.1698" fill="#84BE84" rx="3" ry="3" style="stroke:#038048;stroke-width:1;"/><text fill="#000000" font-family="sans-serif" font-size="14" lengthAdjust="spacing" textLength="116.6196" x="228.5" y="104.1018">requiredMethod()</text></g><!--link RealDependency to AbstractDependency--><g class="link" data-entity-1="RealDependency" data-entity-2="AbstractDependency" data-source-line="12" data-uid="lnk4" id="link_RealDependency_AbstractDependency"><path codeLine="12" d="M107.81,102.54 C117.16,124.62 121.4238,134.7079 130.1238,155.2279" fill="none" id="RealDependency-to-AbstractDependency" style="stroke:#181818;stroke-width:1;stroke-dasharray:7,7;"/><polygon fill="none" points="137.15,171.8,135.6479,152.8859,124.5998,157.57,137.15,171.8" style="stroke:#181818;stroke-width:1;"/></g><!--link Adapter to RequiredInterface--><g class="link" data-entity-1="Adapter" data-entity-2="RequiredInterface" data-source-line="26" data-uid="lnk7" id="link_Adapter_RequiredInterface"><path codeLine="26" d="M401,112.08 C401,131.93 401,136.04 401,153.66" fill="none" id="Adapter-to-RequiredInterface" style="stroke:#181818;stroke-width:1;stroke-dasharray:7,7;"/><polygon fill="none" points="401,171.66,407,153.66,395,153.66,401,171.66" style="stroke:#181818;stroke-width:1;"/></g><!--link Adapter to AbstractDependency--><g class="link" data-entity-1="Adapter" data-entity-2="AbstractDependency" data-source-line="28" data-uid="lnk8" id="link_Adapter_AbstractDependency"><path codeLine="28" d="M311.45,112.08 C276.84,132.01 243.4895,151.2258 212.8395,168.8758" fill="none" id="Adapter-to-AbstractDependency" style="stroke:#181818;stroke-width:1;stroke-dasharray:7,7;"/><polygon fill="#181818" points="207.64,171.87,217.4354,170.8451,211.9729,169.3749,213.4432,163.9124,207.64,171.87" style="stroke:#181818;stroke-width:1;"/></g><!--SRC=[oymhIIrAIqnELN1CAYufIamkSKajICrBISrBhkIgvb800cs55BYGRsf9HdwAXYPNBHSNLt9EOd6nGb1gOWw67bH1e7ey1g6gLT3Jgx73vXYkJBXJWr8BIpEBKbCyOI9mbnP1PR2uqp4biG2e7AeKojD8pKrAJKb9JK5OP8N5SeZxTHM8KutRBL1R8Nx4z0MIFBOW0000]--></g></svg>