<svg xmlns="http://www.w3.org/2000/svg" xmlns:xlink="http://www.w3.org/1999/xlink" contentStyleType="text/css" data-diagram-type="CLASS" height="437px" preserveAspectRatio="none" style="width:2057px;height:437px;background:#FFFFFF;" version="1.1" viewBox="0 0 2057 437" width="2057px" zoomAndPan="magnify"><defs/><g><!--class LibraryCard--><g class="entity" data-entity="LibraryCard" data-source-line="1" data-uid="ent0002" id="entity_LibraryCard"><rect fill="#F1F1F1" height="257.7471" rx="2.5" ry="2.5" style="stroke:#181818;stroke-width:0.5;" width="634.2277" x="7" y="7"/><ellipse cx="281.259" cy="23" fill="#ADD1B2" rx="11" ry="11" style="stroke:#181818;stroke-width:1;"/><path d="M284.2277,28.6406 Q283.6496,28.9375 283.009,29.0781 Q282.3683,29.2344 281.6652,29.2344 Q279.1652,29.2344 277.8371,27.5938 Q276.5246,25.9375 276.5246,22.8125 Q276.5246,19.6875 277.8371,18.0313 Q279.1652,16.375 281.6652,16.375 Q282.3683,16.375 283.009,16.5313 Q283.6652,16.6875 284.2277,16.9844 L284.2277,19.7031 Q283.6027,19.125 283.009,18.8594 Q282.4152,18.5781 281.7902,18.5781 Q280.4465,18.5781 279.759,19.6563 Q279.0715,20.7188 279.0715,22.8125 Q279.0715,24.9063 279.759,25.9844 Q280.4465,27.0469 281.7902,27.0469 Q282.4152,27.0469 283.009,26.7813 Q283.6027,26.5 284.2277,25.9219 L284.2277,28.6406 Z " fill="#000000"/><text fill="#000000" font-family="sans-serif" font-size="14" lengthAdjust="spacing" textLength="77.2097" x="301.759" y="28.432">LibraryCard</text><line style="stroke:#181818;stroke-width:0.5;" x1="8" x2="640.2277" y1="39" y2="39"/><rect fill="none" height="6" style="stroke:#C82930;stroke-width:1;" width="6" x="15" y="51.034"/><text fill="#000000" font-family="sans-serif" font-size="14" lengthAdjust="spacing" textLength="330.8188" x="27" y="57.9659">borrowedItems: Map&lt;BorrowableItem,LocalDate&gt;</text><rect fill="none" height="6" style="stroke:#C82930;stroke-width:1;" width="6" x="15" y="70.1019"/><text fill="#000000" font-family="sans-serif" font-size="14" lengthAdjust="spacing" textLength="92.7356" x="27" y="77.0339">idNumber: Int</text><rect fill="none" height="6" style="stroke:#C82930;stroke-width:1;" width="6" x="15" y="89.1698"/><text fill="#000000" font-family="sans-serif" font-size="14" lengthAdjust="spacing" textLength="84.2797" x="27" y="96.1018">name: String</text><line style="stroke:#181818;stroke-width:0.5;" x1="8" x2="640.2277" y1="104.2038" y2="104.2038"/><text fill="#000000" font-family="sans-serif" font-size="14" lengthAdjust="spacing" textLength="608.2277" x="27" y="123.1697">LibraryCard(idNumber: Int, name: String, borrowedItems: Map&lt;BorrowableItem,LocalDate&gt;)</text><ellipse cx="18" cy="138.3056" fill="#84BE84" rx="3" ry="3" style="stroke:#038048;stroke-width:1;"/><text fill="#000000" font-family="sans-serif" font-size="14" lengthAdjust="spacing" textLength="340.9267" x="27" y="142.2376">borrowItem(item: BorrowableItem, date: LocalDate)</text><ellipse cx="18" cy="157.3735" fill="#84BE84" rx="3" ry="3" style="stroke:#038048;stroke-width:1;"/><text fill="#000000" font-family="sans-serif" font-size="14" lengthAdjust="spacing" textLength="161.5034" x="27" y="161.3055">borrowerReport(): String</text><rect fill="#F24D5C" height="6" style="stroke:#C82930;stroke-width:1;" width="6" x="15" y="173.4415"/><text fill="#000000" font-family="sans-serif" font-size="14" lengthAdjust="spacing" textLength="361.7306" x="27" y="180.3734">daysOverdue(b: BorrowableItem, today: LocalDate): Int</text><ellipse cx="18" cy="195.5094" fill="#84BE84" rx="3" ry="3" style="stroke:#038048;stroke-width:1;"/><text fill="#000000" font-family="sans-serif" font-size="14" lengthAdjust="spacing" textLength="334.5428" x="27" y="199.4414">itemsDue(today: LocalDate): List&lt;BorrowableItem&gt;</text><ellipse cx="18" cy="214.5773" fill="#84BE84" rx="3" ry="3" style="stroke:#038048;stroke-width:1;"/><text fill="#000000" font-family="sans-serif" font-size="14" lengthAdjust="spacing" textLength="337.1608" x="27" y="218.5093">penalty(b: BorrowableItem, today: LocalDate): Float</text><ellipse cx="18" cy="233.6452" fill="#84BE84" rx="3" ry="3" style="stroke:#038048;stroke-width:1;"/><text fill="#000000" font-family="sans-serif" font-size="14" lengthAdjust="spacing" textLength="204.3712" x="27" y="237.5772">returnItem(b: BorrowableItem)</text><ellipse cx="18" cy="252.7131" fill="#84BE84" rx="3" ry="3" style="stroke:#038048;stroke-width:1;"/><text fill="#000000" font-family="sans-serif" font-size="14" lengthAdjust="spacing" textLength="236.3051" x="27" y="256.6451">totalPenalty(today: LocalDate): Float</text></g><!--class BorrowableItem--><g class="entity" data-entity="BorrowableItem" data-source-line="17" data-uid="ent0003" id="entity_BorrowableItem"><rect fill="#F1F1F1" height="105.2038" rx="2.5" ry="2.5" style="stroke:#181818;stroke-width:0.5;" width="179.1594" x="1146.5" y="325"/><ellipse cx="1182.4942" cy="341" fill="#B4A7E5" rx="11" ry="11" style="stroke:#181818;stroke-width:1;"/><path d="M1178.4161,336.7656 L1178.4161,334.6094 L1185.8067,334.6094 L1185.8067,336.7656 L1183.338,336.7656 L1183.338,344.8438 L1185.8067,344.8438 L1185.8067,347 L1178.4161,347 L1178.4161,344.8438 L1180.8848,344.8438 L1180.8848,336.7656 L1178.4161,336.7656 Z " fill="#000000"/><text fill="#000000" font-family="sans-serif" font-size="14" font-style="italic" lengthAdjust="spacing" textLength="100.5056" x="1201.1596" y="346.432">BorrowableItem</text><line style="stroke:#181818;stroke-width:0.5;" x1="1147.5" x2="1324.6594" y1="357" y2="357"/><line style="stroke:#181818;stroke-width:0.5;" x1="1147.5" x2="1324.6594" y1="365" y2="365"/><ellipse cx="1157.5" cy="380.034" fill="#84BE84" rx="3" ry="3" style="stroke:#038048;stroke-width:1;"/><text fill="#000000" font-family="sans-serif" font-size="14" lengthAdjust="spacing" textLength="125.2015" x="1166.5" y="383.9659">borrowPeriod(): Int</text><ellipse cx="1157.5" cy="399.1019" fill="#84BE84" rx="3" ry="3" style="stroke:#038048;stroke-width:1;"/><text fill="#000000" font-family="sans-serif" font-size="14" lengthAdjust="spacing" textLength="153.1594" x="1166.5" y="403.0339">commonName(): String</text><ellipse cx="1157.5" cy="418.1698" fill="#84BE84" rx="3" ry="3" style="stroke:#038048;stroke-width:1;"/><text fill="#000000" font-family="sans-serif" font-size="14" lengthAdjust="spacing" textLength="124.4595" x="1166.5" y="422.1018">uniqueItemId(): Int</text></g><!--class Periodical--><g class="entity" data-entity="Periodical" data-source-line="25" data-uid="ent0004" id="entity_Periodical"><rect fill="#F1F1F1" height="200.5433" rx="2.5" ry="2.5" style="stroke:#181818;stroke-width:0.5;" width="521.8081" x="676" y="35.5"/><ellipse cx="900.3352" cy="51.5" fill="#ADD1B2" rx="11" ry="11" style="stroke:#181818;stroke-width:1;"/><path d="M903.3039,57.1406 Q902.7258,57.4375 902.0852,57.5781 Q901.4445,57.7344 900.7414,57.7344 Q898.2414,57.7344 896.9133,56.0938 Q895.6008,54.4375 895.6008,51.3125 Q895.6008,48.1875 896.9133,46.5313 Q898.2414,44.875 900.7414,44.875 Q901.4445,44.875 902.0852,45.0313 Q902.7414,45.1875 903.3039,45.4844 L903.3039,48.2031 Q902.6789,47.625 902.0852,47.3594 Q901.4914,47.0781 900.8664,47.0781 Q899.5227,47.0781 898.8352,48.1563 Q898.1477,49.2188 898.1477,51.3125 Q898.1477,53.4063 898.8352,54.4844 Q899.5227,55.5469 900.8664,55.5469 Q901.4914,55.5469 902.0852,55.2813 Q902.6789,55 903.3039,54.4219 L903.3039,57.1406 Z " fill="#000000"/><text fill="#000000" font-family="sans-serif" font-size="14" lengthAdjust="spacing" textLength="64.6378" x="920.8352" y="56.932">Periodical</text><line style="stroke:#181818;stroke-width:0.5;" x1="677" x2="1196.8081" y1="67.5" y2="67.5"/><rect fill="none" height="6" style="stroke:#C82930;stroke-width:1;" width="6" x="684" y="79.534"/><text fill="#000000" font-family="sans-serif" font-size="14" lengthAdjust="spacing" textLength="105.9796" x="696" y="86.4659">issue: LocalDate</text><rect fill="none" height="6" style="stroke:#C82930;stroke-width:1;" width="6" x="684" y="98.6019"/><text fill="#000000" font-family="sans-serif" font-size="14" lengthAdjust="spacing" textLength="118.6216" x="696" y="105.5339">pages: List&lt;Page&gt;</text><rect fill="none" height="6" style="stroke:#C82930;stroke-width:1;" width="6" x="684" y="117.6698"/><text fill="#000000" font-family="sans-serif" font-size="14" lengthAdjust="spacing" textLength="103.9776" x="696" y="124.6018">periodicalId: Int</text><rect fill="none" height="6" style="stroke:#C82930;stroke-width:1;" width="6" x="684" y="136.7377"/><text fill="#000000" font-family="sans-serif" font-size="14" lengthAdjust="spacing" textLength="72.0157" x="696" y="143.6697">title: String</text><line style="stroke:#181818;stroke-width:0.5;" x1="677" x2="1196.8081" y1="151.7717" y2="151.7717"/><text fill="#000000" font-family="sans-serif" font-size="14" lengthAdjust="spacing" textLength="495.8081" x="696" y="170.7376">Periodical(periodicalId: Int, title: String, issue: LocalDate, pages: List&lt;Page&gt;)</text><ellipse cx="687" cy="185.8735" fill="#84BE84" rx="3" ry="3" style="stroke:#038048;stroke-width:1;"/><text fill="#000000" font-family="sans-serif" font-size="14" lengthAdjust="spacing" textLength="125.2015" x="696" y="189.8055">borrowPeriod(): Int</text><ellipse cx="687" cy="204.9415" fill="#84BE84" rx="3" ry="3" style="stroke:#038048;stroke-width:1;"/><text fill="#000000" font-family="sans-serif" font-size="14" lengthAdjust="spacing" textLength="153.1594" x="696" y="208.8734">commonName(): String</text><ellipse cx="687" cy="224.0094" fill="#84BE84" rx="3" ry="3" style="stroke:#038048;stroke-width:1;"/><text fill="#000000" font-family="sans-serif" font-size="14" lengthAdjust="spacing" textLength="124.4595" x="696" y="227.9414">uniqueItemId(): Int</text></g><!--class Book--><g class="entity" data-entity="Book" data-source-line="38" data-uid="ent0006" id="entity_Book"><rect fill="#F1F1F1" height="238.6792" rx="2.5" ry="2.5" style="stroke:#181818;stroke-width:0.5;" width="603.4839" x="1233.5" y="16.5"/><ellipse cx="1514.234" cy="32.5" fill="#ADD1B2" rx="11" ry="11" style="stroke:#181818;stroke-width:1;"/><path d="M1517.2028,38.1406 Q1516.6246,38.4375 1515.984,38.5781 Q1515.3434,38.7344 1514.6403,38.7344 Q1512.1403,38.7344 1510.8121,37.0938 Q1509.4996,35.4375 1509.4996,32.3125 Q1509.4996,29.1875 1510.8121,27.5313 Q1512.1403,25.875 1514.6403,25.875 Q1515.3434,25.875 1515.984,26.0313 Q1516.6403,26.1875 1517.2028,26.4844 L1517.2028,29.2031 Q1516.5778,28.625 1515.984,28.3594 Q1515.3903,28.0781 1514.7653,28.0781 Q1513.4215,28.0781 1512.734,29.1563 Q1512.0465,30.2188 1512.0465,32.3125 Q1512.0465,34.4063 1512.734,35.4844 Q1513.4215,36.5469 1514.7653,36.5469 Q1515.3903,36.5469 1515.984,36.2813 Q1516.5778,36 1517.2028,35.4219 L1517.2028,38.1406 Z " fill="#000000"/><text fill="#000000" font-family="sans-serif" font-size="14" lengthAdjust="spacing" textLength="33.5159" x="1534.734" y="37.932">Book</text><line style="stroke:#181818;stroke-width:0.5;" x1="1234.5" x2="1835.9839" y1="48.5" y2="48.5"/><rect fill="none" height="6" style="stroke:#C82930;stroke-width:1;" width="6" x="1241.5" y="60.534"/><text fill="#000000" font-family="sans-serif" font-size="14" lengthAdjust="spacing" textLength="91.2517" x="1253.5" y="67.4659">author: String</text><rect fill="none" height="6" style="stroke:#C82930;stroke-width:1;" width="6" x="1241.5" y="79.6019"/><text fill="#000000" font-family="sans-serif" font-size="14" lengthAdjust="spacing" textLength="72.2257" x="1253.5" y="86.5339">bookId: Int</text><rect fill="none" height="6" style="stroke:#C82930;stroke-width:1;" width="6" x="1241.5" y="98.6698"/><text fill="#000000" font-family="sans-serif" font-size="14" lengthAdjust="spacing" textLength="118.6216" x="1253.5" y="105.6018">pages: List&lt;Page&gt;</text><rect fill="none" height="6" style="stroke:#C82930;stroke-width:1;" width="6" x="1241.5" y="117.7377"/><text fill="#000000" font-family="sans-serif" font-size="14" lengthAdjust="spacing" textLength="151.8854" x="1253.5" y="124.6697">publishDate: LocalDate</text><rect fill="none" height="6" style="stroke:#C82930;stroke-width:1;" width="6" x="1241.5" y="136.8056"/><text fill="#000000" font-family="sans-serif" font-size="14" lengthAdjust="spacing" textLength="72.0157" x="1253.5" y="143.7376">title: String</text><line style="stroke:#181818;stroke-width:0.5;" x1="1234.5" x2="1835.9839" y1="151.8396" y2="151.8396"/><text fill="#000000" font-family="sans-serif" font-size="14" lengthAdjust="spacing" textLength="577.4839" x="1253.5" y="170.8055">Book(bookId: Int, title: String, author: String, publishDate: LocalDate, pages: List&lt;Page&gt;)</text><ellipse cx="1244.5" cy="185.9415" fill="#84BE84" rx="3" ry="3" style="stroke:#038048;stroke-width:1;"/><text fill="#000000" font-family="sans-serif" font-size="14" lengthAdjust="spacing" textLength="125.2015" x="1253.5" y="189.8734">borrowPeriod(): Int</text><ellipse cx="1244.5" cy="205.0094" fill="#84BE84" rx="3" ry="3" style="stroke:#038048;stroke-width:1;"/><text fill="#000000" font-family="sans-serif" font-size="14" lengthAdjust="spacing" textLength="153.1594" x="1253.5" y="208.9414">commonName(): String</text><ellipse cx="1244.5" cy="224.0773" fill="#84BE84" rx="3" ry="3" style="stroke:#038048;stroke-width:1;"/><text fill="#000000" font-family="sans-serif" font-size="14" lengthAdjust="spacing" textLength="117.8515" x="1253.5" y="228.0093">coverInfo(): String</text><ellipse cx="1244.5" cy="243.1452" fill="#84BE84" rx="3" ry="3" style="stroke:#038048;stroke-width:1;"/><text fill="#000000" font-family="sans-serif" font-size="14" lengthAdjust="spacing" textLength="124.4595" x="1253.5" y="247.0772">uniqueItemId(): Int</text></g><!--class PC--><g class="entity" data-entity="PC" data-source-line="53" data-uid="ent0008" id="entity_PC"><rect fill="#F1F1F1" height="143.3396" rx="2.5" ry="2.5" style="stroke:#181818;stroke-width:0.5;" width="179.1594" x="1871.5" y="64.5"/><ellipse cx="1948.1707" cy="80.5" fill="#ADD1B2" rx="11" ry="11" style="stroke:#181818;stroke-width:1;"/><path d="M1951.1395,86.1406 Q1950.5614,86.4375 1949.9207,86.5781 Q1949.2801,86.7344 1948.577,86.7344 Q1946.077,86.7344 1944.7489,85.0938 Q1943.4364,83.4375 1943.4364,80.3125 Q1943.4364,77.1875 1944.7489,75.5313 Q1946.077,73.875 1948.577,73.875 Q1949.2801,73.875 1949.9207,74.0313 Q1950.577,74.1875 1951.1395,74.4844 L1951.1395,77.2031 Q1950.5145,76.625 1949.9207,76.3594 Q1949.327,76.0781 1948.702,76.0781 Q1947.3582,76.0781 1946.6707,77.1563 Q1945.9832,78.2188 1945.9832,80.3125 Q1945.9832,82.4063 1946.6707,83.4844 Q1947.3582,84.5469 1948.702,84.5469 Q1949.327,84.5469 1949.9207,84.2813 Q1950.5145,84 1951.1395,83.4219 L1951.1395,86.1406 Z " fill="#000000"/><text fill="#000000" font-family="sans-serif" font-size="14" lengthAdjust="spacing" textLength="17.3179" x="1968.6707" y="85.932">PC</text><line style="stroke:#181818;stroke-width:0.5;" x1="1872.5" x2="2049.6594" y1="96.5" y2="96.5"/><rect fill="none" height="6" style="stroke:#C82930;stroke-width:1;" width="6" x="1879.5" y="108.534"/><text fill="#000000" font-family="sans-serif" font-size="14" lengthAdjust="spacing" textLength="56.1398" x="1891.5" y="115.4659">pcID: Int</text><line style="stroke:#181818;stroke-width:0.5;" x1="1872.5" x2="2049.6594" y1="123.5679" y2="123.5679"/><text fill="#000000" font-family="sans-serif" font-size="14" lengthAdjust="spacing" textLength="81.8577" x="1891.5" y="142.5339">PC(pcID: Int)</text><ellipse cx="1882.5" cy="157.6698" fill="#84BE84" rx="3" ry="3" style="stroke:#038048;stroke-width:1;"/><text fill="#000000" font-family="sans-serif" font-size="14" lengthAdjust="spacing" textLength="125.2015" x="1891.5" y="161.6018">borrowPeriod(): Int</text><ellipse cx="1882.5" cy="176.7377" fill="#84BE84" rx="3" ry="3" style="stroke:#038048;stroke-width:1;"/><text fill="#000000" font-family="sans-serif" font-size="14" lengthAdjust="spacing" textLength="153.1594" x="1891.5" y="180.6697">commonName(): String</text><ellipse cx="1882.5" cy="195.8056" fill="#84BE84" rx="3" ry="3" style="stroke:#038048;stroke-width:1;"/><text fill="#000000" font-family="sans-serif" font-size="14" lengthAdjust="spacing" textLength="124.4595" x="1891.5" y="199.7376">uniqueItemId(): Int</text></g><!--link Periodical to BorrowableItem--><g class="link" data-entity-1="Periodical" data-entity-2="BorrowableItem" data-source-line="36" data-uid="lnk5" id="link_Periodical_BorrowableItem"><path codeLine="36" d="M1061.64,236.84 C1099.45,267.13 1125.4003,287.918 1157.5403,313.658" fill="none" id="Periodical-to-BorrowableItem" style="stroke:#181818;stroke-width:1;stroke-dasharray:7,7;"/><polygon fill="none" points="1171.59,324.91,1161.291,308.9748,1153.7897,318.3412,1171.59,324.91" style="stroke:#181818;stroke-width:1;"/></g><!--link Book to BorrowableItem--><g class="link" data-entity-1="Book" data-entity-2="BorrowableItem" data-source-line="51" data-uid="lnk7" id="link_Book_BorrowableItem"><path codeLine="51" d="M1386.81,255.7 C1356.42,280.05 1339.9992,293.1974 1314.4792,313.6374" fill="none" id="Book-to-BorrowableItem" style="stroke:#181818;stroke-width:1;stroke-dasharray:7,7;"/><polygon fill="none" points="1300.43,324.89,1318.23,318.3205,1310.7283,308.9544,1300.43,324.89" style="stroke:#181818;stroke-width:1;"/></g><!--link PC to BorrowableItem--><g class="link" data-entity-1="PC" data-entity-2="BorrowableItem" data-source-line="61" data-uid="lnk9" id="link_PC_BorrowableItem"><path codeLine="61" d="M1916.29,207.79 C1899.32,229.31 1878.16,250.95 1854,265 C1765.57,316.4 1492.7029,350.4831 1343.6829,366.0231" fill="none" id="PC-to-BorrowableItem" style="stroke:#181818;stroke-width:1;stroke-dasharray:7,7;"/><polygon fill="none" points="1325.78,367.89,1344.3052,371.9907,1343.0606,360.0554,1325.78,367.89" style="stroke:#181818;stroke-width:1;"/></g><!--link LibraryCard to BorrowableItem--><g class="link" data-entity-1="LibraryCard" data-entity-2="BorrowableItem" data-source-line="63" data-uid="lnk10" id="link_LibraryCard_BorrowableItem"><path codeLine="63" d="M641.33,260.11 C646.92,261.79 652.48,263.42 658,265 C827.75,313.5 1025.6739,346.4364 1140.3039,363.3064" fill="none" id="LibraryCard-to-BorrowableItem" style="stroke:#181818;stroke-width:1;stroke-dasharray:7,7;"/><polygon fill="#181818" points="1146.24,364.18,1137.9183,358.9122,1141.2933,363.452,1136.7535,366.827,1146.24,364.18" style="stroke:#181818;stroke-width:1;"/></g><!--SRC=[jLJBJiCm4BpdAtnqrRGV4A4UcWefKYaHV86JR5iBnmv-W2hWtt62yt8V5AdaO3cJdTdTyJev8qgXDSqaaOUOo2Bu291z1WYcnSQK6SW89Lo7Y9CI8lIi9UMx46L2Il4EHQAXL15w8DNTie58ng06mxN82LiH3Oj98ptx4yTHHZKuR5X80qsTSYs1gLqYvEcYmcf6g9EVZ7WWdw0IKkF9I7PcMGVr-0QoC82pOr4jRC1GjQzoYkewrCeIJqIjgT9Uwmj7gu0JfWzNfhjdWhG99MWZUUF14RdjLmjDMEfIdDNx2eA0SWroItBmbDoSjDQb8AaeyAZpN9Ibu1jxIfwXKsGuVJMDJjAHwcnvCuu_OjIMuxBq0AwwRLAuWTHKiy54KgNCy8n3L94TAETsQlVT8FgX3ZwARt4_jyD71TpUbhvxD9z_Blo3SAOjXNXnTjLRdDdbd4N4wBsG_NjbCaRLVZM-71UC6mjqrxhB-9kH9_FTsirSs2kRyAsuqkVQjaiEft4xZZ6kycJLy5f7Ek0VpZy-NTNW7sq3_E_V]--></g></svg>