<svg xmlns="http://www.w3.org/2000/svg" xmlns:xlink="http://www.w3.org/1999/xlink" contentStyleType="text/css" data-diagram-type="CLASS" height="430px" preserveAspectRatio="none" style="width:639px;height:430px;background:#FFFFFF;" version="1.1" viewBox="0 0 639 430" width="639px" zoomAndPan="magnify"><defs/><g><!--class SimpleClass--><g class="entity" data-entity="SimpleClass" data-source-line="1" data-uid="ent0002" id="entity_SimpleClass"><rect fill="#F1F1F1" height="86.1358" rx="2.5" ry="2.5" style="stroke:#181818;stroke-width:0.5;" width="123.2016" x="258" y="337"/><ellipse cx="278.8365" cy="353" fill="#ADD1B2" rx="11" ry="11" style="stroke:#181818;stroke-width:1;"/><path d="M281.8052,358.6406 Q281.2271,358.9375 280.5865,359.0781 Q279.9458,359.2344 279.2427,359.2344 Q276.7427,359.2344 275.4146,357.5938 Q274.1021,355.9375 274.1021,352.8125 Q274.1021,349.6875 275.4146,348.0313 Q276.7427,346.375 279.2427,346.375 Q279.9458,346.375 280.5865,346.5313 Q281.2427,346.6875 281.8052,346.9844 L281.8052,349.7031 Q281.1802,349.125 280.5865,348.8594 Q279.9927,348.5781 279.3677,348.5781 Q278.024,348.5781 277.3365,349.6563 Q276.649,350.7188 276.649,352.8125 Q276.649,354.9063 277.3365,355.9844 Q278.024,357.0469 279.3677,357.0469 Q279.9927,357.0469 280.5865,356.7813 Q281.1802,356.5 281.8052,355.9219 L281.8052,358.6406 Z " fill="#000000"/><text fill="#000000" font-family="sans-serif" font-size="14" lengthAdjust="spacing" textLength="78.2317" x="294.1335" y="358.432">SimpleClass</text><line style="stroke:#181818;stroke-width:0.5;" x1="259" x2="380.2016" y1="369" y2="369"/><line style="stroke:#181818;stroke-width:0.5;" x1="259" x2="380.2016" y1="377" y2="377"/><text fill="#000000" font-family="sans-serif" font-size="14" lengthAdjust="spacing" textLength="86.6317" x="278" y="395.9659">SimpleClass()</text><ellipse cx="269" cy="411.1019" fill="#84BE84" rx="3" ry="3" style="stroke:#038048;stroke-width:1;"/><text fill="#000000" font-family="sans-serif" font-size="14" lengthAdjust="spacing" textLength="97.2016" x="278" y="415.0339">doSomething()</text></g><!--class BaseDecorator--><g class="entity" data-entity="BaseDecorator" data-source-line="8" data-uid="ent0003" id="entity_BaseDecorator"><rect fill="#F1F1F1" height="105.2038" rx="2.5" ry="2.5" style="stroke:#181818;stroke-width:0.5;" width="319.0189" x="160" y="172"/><ellipse cx="269.4796" cy="188" fill="#A9DCDF" rx="11" ry="11" style="stroke:#181818;stroke-width:1;"/><path d="M269.589,183.3438 L268.4327,188.4219 L270.7609,188.4219 L269.589,183.3438 Z M268.1046,181.1094 L271.089,181.1094 L274.4484,193.5 L271.9952,193.5 L271.2296,190.4375 L267.9484,190.4375 L267.1984,193.5 L264.7609,193.5 L268.1046,181.1094 Z " fill="#000000"/><text fill="#000000" font-family="sans-serif" font-size="14" font-style="italic" lengthAdjust="spacing" textLength="91.5596" x="289.9796" y="193.432">BaseDecorator</text><line style="stroke:#181818;stroke-width:0.5;" x1="161" x2="478.0189" y1="204" y2="204"/><polygon fill="none" points="171,214.034,175,218.034,171,222.034,167,218.034" style="stroke:#B38D22;stroke-width:1;"/><text fill="#000000" font-family="sans-serif" font-size="14" lengthAdjust="spacing" textLength="186.8153" x="180" y="222.9659">wrappedObject: SimpleClass</text><line style="stroke:#181818;stroke-width:0.5;" x1="161" x2="478.0189" y1="231.0679" y2="231.0679"/><text fill="#000000" font-family="sans-serif" font-size="14" lengthAdjust="spacing" textLength="293.0189" x="180" y="250.0339">BaseDecorator(wrappedObject: SimpleClass)</text><ellipse cx="171" cy="265.1698" fill="#84BE84" rx="3" ry="3" style="stroke:#038048;stroke-width:1;"/><text fill="#000000" font-family="sans-serif" font-size="14" lengthAdjust="spacing" textLength="97.2016" x="180" y="269.1018">doSomething()</text></g><!--class Decorator1--><g class="entity" data-entity="Decorator1" data-source-line="16" data-uid="ent0005" id="entity_Decorator1"><rect fill="#F1F1F1" height="105.2038" rx="2.5" ry="2.5" style="stroke:#181818;stroke-width:0.5;" width="295.471" x="7" y="7"/><ellipse cx="113.3576" cy="23" fill="#ADD1B2" rx="11" ry="11" style="stroke:#181818;stroke-width:1;"/><path d="M116.3264,28.6406 Q115.7483,28.9375 115.1076,29.0781 Q114.467,29.2344 113.7639,29.2344 Q111.2639,29.2344 109.9358,27.5938 Q108.6233,25.9375 108.6233,22.8125 Q108.6233,19.6875 109.9358,18.0313 Q111.2639,16.375 113.7639,16.375 Q114.467,16.375 115.1076,16.5313 Q115.7639,16.6875 116.3264,16.9844 L116.3264,19.7031 Q115.7014,19.125 115.1076,18.8594 Q114.5139,18.5781 113.8889,18.5781 Q112.5451,18.5781 111.8576,19.6563 Q111.1701,20.7188 111.1701,22.8125 Q111.1701,24.9063 111.8576,25.9844 Q112.5451,27.0469 113.8889,27.0469 Q114.5139,27.0469 115.1076,26.7813 Q115.7014,26.5 116.3264,25.9219 L116.3264,28.6406 Z " fill="#000000"/><text fill="#000000" font-family="sans-serif" font-size="14" lengthAdjust="spacing" textLength="74.2557" x="133.8576" y="28.432">Decorator1</text><line style="stroke:#181818;stroke-width:0.5;" x1="8" x2="301.471" y1="39" y2="39"/><line style="stroke:#181818;stroke-width:0.5;" x1="8" x2="301.471" y1="47" y2="47"/><text fill="#000000" font-family="sans-serif" font-size="14" lengthAdjust="spacing" textLength="269.471" x="27" y="65.9659">Decorator1(wrappedObject: SimpleClass)</text><ellipse cx="18" cy="81.1019" fill="#84BE84" rx="3" ry="3" style="stroke:#038048;stroke-width:1;"/><text fill="#000000" font-family="sans-serif" font-size="14" lengthAdjust="spacing" textLength="97.2016" x="27" y="85.0339">doSomething()</text><rect fill="#F24D5C" height="6" style="stroke:#C82930;stroke-width:1;" width="6" x="15" y="97.1698"/><text fill="#000000" font-family="sans-serif" font-size="14" lengthAdjust="spacing" textLength="131.0815" x="27" y="104.1018">doSomethingExtra()</text></g><!--class Decorator2--><g class="entity" data-entity="Decorator2" data-source-line="24" data-uid="ent0007" id="entity_Decorator2"><rect fill="#F1F1F1" height="105.2038" rx="2.5" ry="2.5" style="stroke:#181818;stroke-width:0.5;" width="295.471" x="337" y="7"/><ellipse cx="443.3576" cy="23" fill="#ADD1B2" rx="11" ry="11" style="stroke:#181818;stroke-width:1;"/><path d="M446.3264,28.6406 Q445.7483,28.9375 445.1076,29.0781 Q444.467,29.2344 443.7639,29.2344 Q441.2639,29.2344 439.9358,27.5938 Q438.6233,25.9375 438.6233,22.8125 Q438.6233,19.6875 439.9358,18.0313 Q441.2639,16.375 443.7639,16.375 Q444.467,16.375 445.1076,16.5313 Q445.7639,16.6875 446.3264,16.9844 L446.3264,19.7031 Q445.7014,19.125 445.1076,18.8594 Q444.5139,18.5781 443.8889,18.5781 Q442.5451,18.5781 441.8576,19.6563 Q441.1701,20.7188 441.1701,22.8125 Q441.1701,24.9063 441.8576,25.9844 Q442.5451,27.0469 443.8889,27.0469 Q444.5139,27.0469 445.1076,26.7813 Q445.7014,26.5 446.3264,25.9219 L446.3264,28.6406 Z " fill="#000000"/><text fill="#000000" font-family="sans-serif" font-size="14" lengthAdjust="spacing" textLength="74.2557" x="463.8576" y="28.432">Decorator2</text><line style="stroke:#181818;stroke-width:0.5;" x1="338" x2="631.471" y1="39" y2="39"/><line style="stroke:#181818;stroke-width:0.5;" x1="338" x2="631.471" y1="47" y2="47"/><text fill="#000000" font-family="sans-serif" font-size="14" lengthAdjust="spacing" textLength="269.471" x="357" y="65.9659">Decorator2(wrappedObject: SimpleClass)</text><ellipse cx="348" cy="81.1019" fill="#84BE84" rx="3" ry="3" style="stroke:#038048;stroke-width:1;"/><text fill="#000000" font-family="sans-serif" font-size="14" lengthAdjust="spacing" textLength="97.2016" x="357" y="85.0339">doSomething()</text><rect fill="#F24D5C" height="6" style="stroke:#C82930;stroke-width:1;" width="6" x="345" y="97.1698"/><text fill="#000000" font-family="sans-serif" font-size="14" lengthAdjust="spacing" textLength="131.0815" x="357" y="104.1018">doSomethingExtra()</text></g><!--link BaseDecorator to SimpleClass--><g class="link" data-entity-1="BaseDecorator" data-entity-2="SimpleClass" data-source-line="14" data-uid="lnk4" id="link_BaseDecorator_SimpleClass"><path codeLine="14" d="M307.38,277.04 C306.38,296.38 305.2155,300.161 306.6055,318.581" fill="none" id="BaseDecorator-to-SimpleClass" style="stroke:#181818;stroke-width:1;"/><polygon fill="none" points="307.96,336.53,312.5885,318.1295,300.6226,319.0325,307.96,336.53" style="stroke:#181818;stroke-width:1;"/></g><!--link BaseDecorator to SimpleClass--><g class="link" data-entity-1="BaseDecorator" data-entity-2="SimpleClass" data-source-line="32" data-uid="lnk9" id="link_BaseDecorator_SimpleClass"><path codeLine="32" d="M332.33,277.04 C333.39,296.38 333.6673,312.129 332.1973,330.549" fill="none" id="BaseDecorator-to-SimpleClass-1" style="stroke:#181818;stroke-width:1;stroke-dasharray:7,7;"/><polygon fill="#181818" points="331.72,336.53,336.4233,327.8767,332.1178,331.5458,328.4486,327.2403,331.72,336.53" style="stroke:#181818;stroke-width:1;"/></g><!--link Decorator1 to BaseDecorator--><g class="link" data-entity-1="Decorator1" data-entity-2="BaseDecorator" data-source-line="22" data-uid="lnk6" id="link_Decorator1_BaseDecorator"><path codeLine="22" d="M206.71,112.07 C226.06,131.19 235.1929,140.2217 254.5429,159.3317" fill="none" id="Decorator1-to-BaseDecorator" style="stroke:#181818;stroke-width:1;"/><polygon fill="none" points="267.35,171.98,258.759,155.0627,250.3268,163.6008,267.35,171.98" style="stroke:#181818;stroke-width:1;"/></g><!--link Decorator2 to BaseDecorator--><g class="link" data-entity-1="Decorator2" data-entity-2="BaseDecorator" data-source-line="30" data-uid="lnk8" id="link_Decorator2_BaseDecorator"><path codeLine="30" d="M432.29,112.07 C412.94,131.19 403.8071,140.2217 384.4571,159.3317" fill="none" id="Decorator2-to-BaseDecorator" style="stroke:#181818;stroke-width:1;"/><polygon fill="none" points="371.65,171.98,388.6732,163.6008,380.241,155.0627,371.65,171.98" style="stroke:#181818;stroke-width:1;"/></g><!--SRC=[Iyv9B2vM2CxCBSX9TGQnkQgv5800IKH34ooYhP2I7voVcrgIaPcN3XIhvUBYIamgBYbAJ2vHI0ORuvHOdEgIcfnVb5YINmGr24LCexmeiQ0WDSK_AIirkSGAsHQ89SeAk5NWS0MA1GgwkZLsA9gu84w3gp24kWiXGD1Hw7Q2n7IHnLmhWA40TWp2L8XBK4C4tIr6w6uneebRZB2w1JNSzFHGWWq0]--></g></svg>