<svg xmlns="http://www.w3.org/2000/svg" xmlns:xlink="http://www.w3.org/1999/xlink" contentStyleType="text/css" data-diagram-type="CLASS" height="392px" preserveAspectRatio="none" style="width:902px;height:392px;background:#FFFFFF;" version="1.1" viewBox="0 0 902 392" width="902px" zoomAndPan="magnify"><defs/><g><!--class Product--><g class="entity" data-entity="Product" data-source-line="1" data-uid="ent0002" id="entity_Product"><rect fill="#F1F1F1" height="67.0679" rx="2.5" ry="2.5" style="stroke:#181818;stroke-width:0.5;" width="80.5938" x="444.5" y="318"/><ellipse cx="459.5" cy="334" fill="#B4A7E5" rx="11" ry="11" style="stroke:#181818;stroke-width:1;"/><path d="M455.4219,329.7656 L455.4219,327.6094 L462.8125,327.6094 L462.8125,329.7656 L460.3438,329.7656 L460.3438,337.8438 L462.8125,337.8438 L462.8125,340 L455.4219,340 L455.4219,337.8438 L457.8906,337.8438 L457.8906,329.7656 L455.4219,329.7656 Z " fill="#000000"/><text fill="#000000" font-family="sans-serif" font-size="14" font-style="italic" lengthAdjust="spacing" textLength="48.5938" x="473.5" y="339.432">Product</text><line style="stroke:#181818;stroke-width:0.5;" x1="445.5" x2="524.0938" y1="350" y2="350"/><line style="stroke:#181818;stroke-width:0.5;" x1="445.5" x2="524.0938" y1="358" y2="358"/><ellipse cx="455.5" cy="373.034" fill="#84BE84" rx="3" ry="3" style="stroke:#038048;stroke-width:1;"/><text fill="#000000" font-family="sans-serif" font-size="14" lengthAdjust="spacing" textLength="31.6539" x="464.5" y="376.9659">use()</text></g><!--class DefaultProduct--><g class="entity" data-entity="DefaultProduct" data-source-line="7" data-uid="ent0003" id="entity_DefaultProduct"><rect fill="#F1F1F1" height="86.1358" rx="2.5" ry="2.5" style="stroke:#181818;stroke-width:0.5;" width="134.2616" x="7" y="162.5"/><ellipse cx="23.08" cy="178.5" fill="#ADD1B2" rx="11" ry="11" style="stroke:#181818;stroke-width:1;"/><path d="M26.0487,184.1406 Q25.4706,184.4375 24.83,184.5781 Q24.1894,184.7344 23.4862,184.7344 Q20.9862,184.7344 19.6581,183.0938 Q18.3456,181.4375 18.3456,178.3125 Q18.3456,175.1875 19.6581,173.5313 Q20.9862,171.875 23.4862,171.875 Q24.1894,171.875 24.83,172.0313 Q25.4862,172.1875 26.0487,172.4844 L26.0487,175.2031 Q25.4237,174.625 24.83,174.3594 Q24.2362,174.0781 23.6112,174.0781 Q22.2675,174.0781 21.58,175.1563 Q20.8925,176.2188 20.8925,178.3125 Q20.8925,180.4063 21.58,181.4844 Q22.2675,182.5469 23.6112,182.5469 Q24.2362,182.5469 24.83,182.2813 Q25.4237,182 26.0487,181.4219 L26.0487,184.1406 Z " fill="#000000"/><text fill="#000000" font-family="sans-serif" font-size="14" lengthAdjust="spacing" textLength="99.8616" x="37.32" y="183.932">DefaultProduct</text><line style="stroke:#181818;stroke-width:0.5;" x1="8" x2="140.2616" y1="194.5" y2="194.5"/><line style="stroke:#181818;stroke-width:0.5;" x1="8" x2="140.2616" y1="202.5" y2="202.5"/><text fill="#000000" font-family="sans-serif" font-size="14" lengthAdjust="spacing" textLength="108.2616" x="27" y="221.4659">DefaultProduct()</text><ellipse cx="18" cy="236.6019" fill="#84BE84" rx="3" ry="3" style="stroke:#038048;stroke-width:1;"/><text fill="#000000" font-family="sans-serif" font-size="14" lengthAdjust="spacing" textLength="31.6539" x="27" y="240.5339">use()</text></g><!--class SpecialProductA--><g class="entity" data-entity="SpecialProductA" data-source-line="14" data-uid="ent0005" id="entity_SpecialProductA"><rect fill="#F1F1F1" height="86.1358" rx="2.5" ry="2.5" style="stroke:#181818;stroke-width:0.5;" width="141.0936" x="176.5" y="162.5"/><ellipse cx="192.58" cy="178.5" fill="#ADD1B2" rx="11" ry="11" style="stroke:#181818;stroke-width:1;"/><path d="M195.5487,184.1406 Q194.9706,184.4375 194.33,184.5781 Q193.6894,184.7344 192.9862,184.7344 Q190.4862,184.7344 189.1581,183.0938 Q187.8456,181.4375 187.8456,178.3125 Q187.8456,175.1875 189.1581,173.5313 Q190.4862,171.875 192.9862,171.875 Q193.6894,171.875 194.33,172.0313 Q194.9862,172.1875 195.5487,172.4844 L195.5487,175.2031 Q194.9237,174.625 194.33,174.3594 Q193.7362,174.0781 193.1112,174.0781 Q191.7675,174.0781 191.08,175.1563 Q190.3925,176.2188 190.3925,178.3125 Q190.3925,180.4063 191.08,181.4844 Q191.7675,182.5469 193.1112,182.5469 Q193.7362,182.5469 194.33,182.2813 Q194.9237,182 195.5487,181.4219 L195.5487,184.1406 Z " fill="#000000"/><text fill="#000000" font-family="sans-serif" font-size="14" lengthAdjust="spacing" textLength="106.6936" x="206.82" y="183.932">SpecialProductA</text><line style="stroke:#181818;stroke-width:0.5;" x1="177.5" x2="316.5936" y1="194.5" y2="194.5"/><line style="stroke:#181818;stroke-width:0.5;" x1="177.5" x2="316.5936" y1="202.5" y2="202.5"/><text fill="#000000" font-family="sans-serif" font-size="14" lengthAdjust="spacing" textLength="115.0936" x="196.5" y="221.4659">SpecialProductA()</text><ellipse cx="187.5" cy="236.6019" fill="#84BE84" rx="3" ry="3" style="stroke:#038048;stroke-width:1;"/><text fill="#000000" font-family="sans-serif" font-size="14" lengthAdjust="spacing" textLength="31.6539" x="196.5" y="240.5339">use()</text></g><!--class SpecialProductB--><g class="entity" data-entity="SpecialProductB" data-source-line="21" data-uid="ent0007" id="entity_SpecialProductB"><rect fill="#F1F1F1" height="86.1358" rx="2.5" ry="2.5" style="stroke:#181818;stroke-width:0.5;" width="141.2476" x="352.5" y="162.5"/><ellipse cx="368.58" cy="178.5" fill="#ADD1B2" rx="11" ry="11" style="stroke:#181818;stroke-width:1;"/><path d="M371.5487,184.1406 Q370.9706,184.4375 370.33,184.5781 Q369.6894,184.7344 368.9862,184.7344 Q366.4862,184.7344 365.1581,183.0938 Q363.8456,181.4375 363.8456,178.3125 Q363.8456,175.1875 365.1581,173.5313 Q366.4862,171.875 368.9862,171.875 Q369.6894,171.875 370.33,172.0313 Q370.9862,172.1875 371.5487,172.4844 L371.5487,175.2031 Q370.9237,174.625 370.33,174.3594 Q369.7362,174.0781 369.1112,174.0781 Q367.7675,174.0781 367.08,175.1563 Q366.3925,176.2188 366.3925,178.3125 Q366.3925,180.4063 367.08,181.4844 Q367.7675,182.5469 369.1112,182.5469 Q369.7362,182.5469 370.33,182.2813 Q370.9237,182 371.5487,181.4219 L371.5487,184.1406 Z " fill="#000000"/><text fill="#000000" font-family="sans-serif" font-size="14" lengthAdjust="spacing" textLength="106.8476" x="382.82" y="183.932">SpecialProductB</text><line style="stroke:#181818;stroke-width:0.5;" x1="353.5" x2="492.7476" y1="194.5" y2="194.5"/><line style="stroke:#181818;stroke-width:0.5;" x1="353.5" x2="492.7476" y1="202.5" y2="202.5"/><text fill="#000000" font-family="sans-serif" font-size="14" lengthAdjust="spacing" textLength="115.2476" x="372.5" y="221.4659">SpecialProductB()</text><ellipse cx="363.5" cy="236.6019" fill="#84BE84" rx="3" ry="3" style="stroke:#038048;stroke-width:1;"/><text fill="#000000" font-family="sans-serif" font-size="14" lengthAdjust="spacing" textLength="31.6539" x="372.5" y="240.5339">use()</text></g><!--class Factory--><g class="entity" data-entity="Factory" data-source-line="28" data-uid="ent0009" id="entity_Factory"><rect fill="#F1F1F1" height="105.2038" rx="2.5" ry="2.5" style="stroke:#181818;stroke-width:0.5;" width="172.8594" x="600.5" y="153"/><ellipse cx="658.5368" cy="169" fill="#ADD1B2" rx="11" ry="11" style="stroke:#181818;stroke-width:1;"/><path d="M661.5056,174.6406 Q660.9274,174.9375 660.2868,175.0781 Q659.6462,175.2344 658.9431,175.2344 Q656.4431,175.2344 655.1149,173.5938 Q653.8024,171.9375 653.8024,168.8125 Q653.8024,165.6875 655.1149,164.0313 Q656.4431,162.375 658.9431,162.375 Q659.6462,162.375 660.2868,162.5313 Q660.9431,162.6875 661.5056,162.9844 L661.5056,165.7031 Q660.8806,165.125 660.2868,164.8594 Q659.6931,164.5781 659.0681,164.5781 Q657.7243,164.5781 657.0368,165.6563 Q656.3493,166.7188 656.3493,168.8125 Q656.3493,170.9063 657.0368,171.9844 Q657.7243,173.0469 659.0681,173.0469 Q659.6931,173.0469 660.2868,172.7813 Q660.8806,172.5 661.5056,171.9219 L661.5056,174.6406 Z " fill="#000000"/><text fill="#000000" font-family="sans-serif" font-size="14" lengthAdjust="spacing" textLength="48.2858" x="679.0368" y="174.432">Factory</text><line style="stroke:#181818;stroke-width:0.5;" x1="601.5" x2="772.3594" y1="185" y2="185"/><line style="stroke:#181818;stroke-width:0.5;" x1="601.5" x2="772.3594" y1="193" y2="193"/><text fill="#000000" font-family="sans-serif" font-size="14" lengthAdjust="spacing" textLength="56.6858" x="620.5" y="211.9659">Factory()</text><ellipse cx="611.5" cy="227.1019" fill="#84BE84" rx="3" ry="3" style="stroke:#038048;stroke-width:1;"/><text fill="#000000" font-family="sans-serif" font-size="14" lengthAdjust="spacing" textLength="95.3256" x="620.5" y="231.0339">clientMethod()</text><ellipse cx="611.5" cy="246.1698" fill="#84BE84" rx="3" ry="3" style="stroke:#038048;stroke-width:1;"/><text fill="#000000" font-family="sans-serif" font-size="14" lengthAdjust="spacing" textLength="146.8594" x="620.5" y="250.1018">newProduct(): Product</text></g><!--class SpecialFactoryA--><g class="entity" data-entity="SpecialFactoryA" data-source-line="36" data-uid="ent0010" id="entity_SpecialFactoryA"><rect fill="#F1F1F1" height="86.1358" rx="2.5" ry="2.5" style="stroke:#181818;stroke-width:0.5;" width="172.8594" x="496.5" y="7"/><ellipse cx="528.437" cy="23" fill="#ADD1B2" rx="11" ry="11" style="stroke:#181818;stroke-width:1;"/><path d="M531.4058,28.6406 Q530.8276,28.9375 530.187,29.0781 Q529.5464,29.2344 528.8433,29.2344 Q526.3433,29.2344 525.0151,27.5938 Q523.7026,25.9375 523.7026,22.8125 Q523.7026,19.6875 525.0151,18.0313 Q526.3433,16.375 528.8433,16.375 Q529.5464,16.375 530.187,16.5313 Q530.8433,16.6875 531.4058,16.9844 L531.4058,19.7031 Q530.7808,19.125 530.187,18.8594 Q529.5933,18.5781 528.9683,18.5781 Q527.6245,18.5781 526.937,19.6563 Q526.2495,20.7188 526.2495,22.8125 Q526.2495,24.9063 526.937,25.9844 Q527.6245,27.0469 528.9683,27.0469 Q529.5933,27.0469 530.187,26.7813 Q530.7808,26.5 531.4058,25.9219 L531.4058,28.6406 Z " fill="#000000"/><text fill="#000000" font-family="sans-serif" font-size="14" lengthAdjust="spacing" textLength="103.2216" x="546.2008" y="28.432">SpecialFactoryA</text><line style="stroke:#181818;stroke-width:0.5;" x1="497.5" x2="668.3594" y1="39" y2="39"/><line style="stroke:#181818;stroke-width:0.5;" x1="497.5" x2="668.3594" y1="47" y2="47"/><text fill="#000000" font-family="sans-serif" font-size="14" lengthAdjust="spacing" textLength="111.6216" x="516.5" y="65.9659">SpecialFactoryA()</text><ellipse cx="507.5" cy="81.1019" fill="#84BE84" rx="3" ry="3" style="stroke:#038048;stroke-width:1;"/><text fill="#000000" font-family="sans-serif" font-size="14" lengthAdjust="spacing" textLength="146.8594" x="516.5" y="85.0339">newProduct(): Product</text></g><!--class SpecialFactoryB--><g class="entity" data-entity="SpecialFactoryB" data-source-line="43" data-uid="ent0012" id="entity_SpecialFactoryB"><rect fill="#F1F1F1" height="86.1358" rx="2.5" ry="2.5" style="stroke:#181818;stroke-width:0.5;" width="172.8594" x="722.5" y="7"/><ellipse cx="754.3677" cy="23" fill="#ADD1B2" rx="11" ry="11" style="stroke:#181818;stroke-width:1;"/><path d="M757.3365,28.6406 Q756.7583,28.9375 756.1177,29.0781 Q755.4771,29.2344 754.774,29.2344 Q752.274,29.2344 750.9458,27.5938 Q749.6333,25.9375 749.6333,22.8125 Q749.6333,19.6875 750.9458,18.0313 Q752.274,16.375 754.774,16.375 Q755.4771,16.375 756.1177,16.5313 Q756.774,16.6875 757.3365,16.9844 L757.3365,19.7031 Q756.7115,19.125 756.1177,18.8594 Q755.524,18.5781 754.899,18.5781 Q753.5552,18.5781 752.8677,19.6563 Q752.1802,20.7188 752.1802,22.8125 Q752.1802,24.9063 752.8677,25.9844 Q753.5552,27.0469 754.899,27.0469 Q755.524,27.0469 756.1177,26.7813 Q756.7115,26.5 757.3365,25.9219 L757.3365,28.6406 Z " fill="#000000"/><text fill="#000000" font-family="sans-serif" font-size="14" lengthAdjust="spacing" textLength="103.3756" x="772.1161" y="28.432">SpecialFactoryB</text><line style="stroke:#181818;stroke-width:0.5;" x1="723.5" x2="894.3594" y1="39" y2="39"/><line style="stroke:#181818;stroke-width:0.5;" x1="723.5" x2="894.3594" y1="47" y2="47"/><text fill="#000000" font-family="sans-serif" font-size="14" lengthAdjust="spacing" textLength="111.7756" x="742.5" y="65.9659">SpecialFactoryB()</text><ellipse cx="733.5" cy="81.1019" fill="#84BE84" rx="3" ry="3" style="stroke:#038048;stroke-width:1;"/><text fill="#000000" font-family="sans-serif" font-size="14" lengthAdjust="spacing" textLength="146.8594" x="742.5" y="85.0339">newProduct(): Product</text></g><!--link DefaultProduct to Product--><g class="link" data-entity-1="DefaultProduct" data-entity-2="Product" data-source-line="12" data-uid="lnk4" id="link_DefaultProduct_Product"><path codeLine="12" d="M139.91,248.74 C146.25,252.09 152.67,255.25 159,258 C257.58,300.92 363.9106,326.0665 426.7906,339.0265" fill="none" id="DefaultProduct-to-Product" style="stroke:#181818;stroke-width:1;stroke-dasharray:7,7;"/><polygon fill="none" points="444.42,342.66,428.0017,333.15,425.5794,344.9029,444.42,342.66" style="stroke:#181818;stroke-width:1;"/></g><!--link SpecialProductA to Product--><g class="link" data-entity-1="SpecialProductA" data-entity-2="Product" data-source-line="19" data-uid="lnk6" id="link_SpecialProductA_Product"><path codeLine="19" d="M316.48,248.54 C358.05,273.69 394.0386,295.4635 429.0686,316.6535" fill="none" id="SpecialProductA-to-Product" style="stroke:#181818;stroke-width:1;stroke-dasharray:7,7;"/><polygon fill="none" points="444.47,325.97,432.1741,311.5197,425.9631,321.7873,444.47,325.97" style="stroke:#181818;stroke-width:1;"/></g><!--link SpecialProductB to Product--><g class="link" data-entity-1="SpecialProductB" data-entity-2="Product" data-source-line="26" data-uid="lnk8" id="link_SpecialProductB_Product"><path codeLine="26" d="M441.1,248.54 C450.61,270.62 454.9751,280.7458 463.8051,301.2658" fill="none" id="SpecialProductB-to-Product" style="stroke:#181818;stroke-width:1;stroke-dasharray:7,7;"/><polygon fill="none" points="470.92,317.8,469.3165,298.8942,458.2938,303.6374,470.92,317.8" style="stroke:#181818;stroke-width:1;"/></g><!--link SpecialFactoryA to Factory--><g class="link" data-entity-1="SpecialFactoryA" data-entity-2="Factory" data-source-line="41" data-uid="lnk11" id="link_SpecialFactoryA_Factory"><path codeLine="41" d="M611.69,93.35 C624.2,111.81 628.8722,118.7092 642.0122,138.0992" fill="none" id="SpecialFactoryA-to-Factory" style="stroke:#181818;stroke-width:1;"/><polygon fill="none" points="652.11,153,646.9791,134.7333,637.0452,141.4651,652.11,153" style="stroke:#181818;stroke-width:1;"/></g><!--link SpecialFactoryB to Factory--><g class="link" data-entity-1="SpecialFactoryB" data-entity-2="Factory" data-source-line="48" data-uid="lnk13" id="link_SpecialFactoryB_Factory"><path codeLine="48" d="M775.34,93.35 C760.67,111.81 754.5393,119.5183 739.1293,138.9083" fill="none" id="SpecialFactoryB-to-Factory" style="stroke:#181818;stroke-width:1;"/><polygon fill="none" points="727.93,153,743.8265,142.6414,734.432,135.1752,727.93,153" style="stroke:#181818;stroke-width:1;"/></g><!--link Factory to Product--><g class="link" data-entity-1="Factory" data-entity-2="Product" data-source-line="50" data-uid="lnk14" id="link_Factory_Product"><path codeLine="50" d="M614.64,258.08 C584.76,279.39 556.1054,299.8067 530.6354,317.9667" fill="none" id="Factory-to-Product" style="stroke:#181818;stroke-width:1;stroke-dasharray:7,7;"/><polygon fill="#181818" points="525.75,321.45,535.4002,319.482,529.8211,318.5473,530.7559,312.9682,525.75,321.45" style="stroke:#181818;stroke-width:1;"/></g><!--link SpecialFactoryA to Product--><g class="link" data-entity-1="SpecialFactoryA" data-entity-2="Product" data-source-line="51" data-uid="lnk15" id="link_SpecialFactoryA_Product"><path codeLine="51" d="M569.17,93.28 C549.43,153.58 515.4857,257.3374 497.6157,311.9574" fill="none" id="SpecialFactoryA-to-Product" style="stroke:#181818;stroke-width:1;stroke-dasharray:7,7;"/><polygon fill="#181818" points="495.75,317.66,502.3503,310.35,497.3048,312.9079,494.7468,307.8624,495.75,317.66" style="stroke:#181818;stroke-width:1;"/></g><!--link SpecialFactoryB to Product--><g class="link" data-entity-1="SpecialFactoryB" data-entity-2="Product" data-source-line="52" data-uid="lnk16" id="link_SpecialFactoryB_Product"><path codeLine="52" d="M818.02,93.36 C825.15,139.16 828.52,211.79 791,258 C757.28,299.52 606.7825,329.9392 531.5425,342.9292" fill="none" id="SpecialFactoryB-to-Product" style="stroke:#181818;stroke-width:1;stroke-dasharray:7,7;"/><polygon fill="#181818" points="525.63,343.95,535.1793,346.3605,530.5571,343.0993,533.8183,338.4771,525.63,343.95" style="stroke:#181818;stroke-width:1;"/></g><!--SRC=[bP1D2i8m48NtEKMMYhG7S24uY3j1y0GXdM8WD98VHDIxcyKqDJ5IpIfvR_AzuQd1e-s5H7wqfWlIiplZyQnuSBXOiYTZJ6hX7DzXBuBs-LWknldyRsxpjdriKWvXJnUKIcXIjyGjr0zmuVz0XYePPiXG9U-5zCRUY4YlH99QuU0FwC-cI-A0rrJIEl6cTYcMM4KDepfBA-PvqyJbnsshIL1DWZ-Je4YYIonlwgxSxRi7xzuB]--></g></svg>