<svg xmlns="http://www.w3.org/2000/svg" xmlns:xlink="http://www.w3.org/1999/xlink" contentStyleType="text/css" data-diagram-type="CLASS" height="449px" preserveAspectRatio="none" style="width:1101px;height:449px;background:#FFFFFF;" version="1.1" viewBox="0 0 1101 449" width="1101px" zoomAndPan="magnify"><defs/><g><!--class Sentence--><g class="entity" data-entity="Sentence" data-source-line="1" data-uid="ent0002" id="entity_Sentence"><rect fill="#F1F1F1" height="124.2717" rx="2.5" ry="2.5" style="stroke:#181818;stroke-width:0.5;" width="220.9352" x="435.5" y="318"/><ellipse cx="511.4917" cy="334" fill="#ADD1B2" rx="11" ry="11" style="stroke:#181818;stroke-width:1;"/><path d="M514.4605,339.6406 Q513.8824,339.9375 513.2417,340.0781 Q512.6011,340.2344 511.898,340.2344 Q509.398,340.2344 508.0699,338.5938 Q506.7574,336.9375 506.7574,333.8125 Q506.7574,330.6875 508.0699,329.0313 Q509.398,327.375 511.898,327.375 Q512.6011,327.375 513.2417,327.5313 Q513.898,327.6875 514.4605,327.9844 L514.4605,330.7031 Q513.8355,330.125 513.2417,329.8594 Q512.648,329.5781 512.023,329.5781 Q510.6792,329.5781 509.9917,330.6563 Q509.3042,331.7188 509.3042,333.8125 Q509.3042,335.9063 509.9917,336.9844 Q510.6792,338.0469 512.023,338.0469 Q512.648,338.0469 513.2417,337.7813 Q513.8355,337.5 514.4605,336.9219 L514.4605,339.6406 Z " fill="#000000"/><text fill="#000000" font-family="sans-serif" font-size="14" lengthAdjust="spacing" textLength="60.4518" x="531.9917" y="339.432">Sentence</text><line style="stroke:#181818;stroke-width:0.5;" x1="436.5" x2="655.4352" y1="350" y2="350"/><rect fill="none" height="6" style="stroke:#C82930;stroke-width:1;" width="6" x="443.5" y="362.034"/><text fill="#000000" font-family="sans-serif" font-size="14" lengthAdjust="spacing" textLength="126.0835" x="455.5" y="368.9659">words: List&lt;String&gt;</text><line style="stroke:#181818;stroke-width:0.5;" x1="436.5" x2="655.4352" y1="377.0679" y2="377.0679"/><text fill="#000000" font-family="sans-serif" font-size="14" lengthAdjust="spacing" textLength="194.9352" x="455.5" y="396.0339">Sentence(words: List&lt;String&gt;)</text><ellipse cx="446.5" cy="411.1698" fill="#84BE84" rx="3" ry="3" style="stroke:#038048;stroke-width:1;"/><text fill="#000000" font-family="sans-serif" font-size="14" lengthAdjust="spacing" textLength="108.1076" x="455.5" y="415.1018">toString(): String</text><ellipse cx="446.5" cy="430.2377" fill="#84BE84" rx="3" ry="3" style="stroke:#038048;stroke-width:1;"/><text fill="#000000" font-family="sans-serif" font-size="14" lengthAdjust="spacing" textLength="134.4835" x="455.5" y="434.1697">words(): List&lt;String&gt;</text></g><!--class FormattedSentence--><g class="entity" data-entity="FormattedSentence" data-source-line="10" data-uid="ent0003" id="entity_FormattedSentence"><rect fill="#F1F1F1" height="105.2038" rx="2.5" ry="2.5" style="stroke:#181818;stroke-width:0.5;" width="350.5887" x="370.5" y="153"/><ellipse cx="481.5686" cy="169" fill="#A9DCDF" rx="11" ry="11" style="stroke:#181818;stroke-width:1;"/><path d="M481.678,164.3438 L480.5217,169.4219 L482.8498,169.4219 L481.678,164.3438 Z M480.1936,162.1094 L483.178,162.1094 L486.5373,174.5 L484.0842,174.5 L483.3186,171.4375 L480.0373,171.4375 L479.2873,174.5 L476.8498,174.5 L480.1936,162.1094 Z " fill="#000000"/><text fill="#000000" font-family="sans-serif" font-size="14" font-style="italic" lengthAdjust="spacing" textLength="119.9516" x="502.0686" y="174.432">FormattedSentence</text><line style="stroke:#181818;stroke-width:0.5;" x1="371.5" x2="720.0887" y1="185" y2="185"/><polygon fill="none" points="381.5,195.034,385.5,199.034,381.5,203.034,377.5,199.034" style="stroke:#B38D22;stroke-width:1;"/><text fill="#000000" font-family="sans-serif" font-size="14" lengthAdjust="spacing" textLength="186.6613" x="390.5" y="203.9659">wrappedSentence: Sentence</text><line style="stroke:#181818;stroke-width:0.5;" x1="371.5" x2="720.0887" y1="212.0679" y2="212.0679"/><text fill="#000000" font-family="sans-serif" font-size="14" lengthAdjust="spacing" textLength="324.5887" x="390.5" y="231.0339">FormattedSentence(wrappedSentence: Sentence)</text><ellipse cx="381.5" cy="246.1698" fill="#84BE84" rx="3" ry="3" style="stroke:#038048;stroke-width:1;"/><text fill="#000000" font-family="sans-serif" font-size="14" lengthAdjust="spacing" textLength="108.1076" x="390.5" y="250.1018">toString(): String</text></g><!--class BorderedSentence--><g class="entity" data-entity="BorderedSentence" data-source-line="18" data-uid="ent0005" id="entity_BorderedSentence"><rect fill="#F1F1F1" height="86.1358" rx="2.5" ry="2.5" style="stroke:#181818;stroke-width:0.5;" width="343.6588" x="7" y="7"/><ellipse cx="113.2806" cy="23" fill="#ADD1B2" rx="11" ry="11" style="stroke:#181818;stroke-width:1;"/><path d="M116.2494,28.6406 Q115.6712,28.9375 115.0306,29.0781 Q114.39,29.2344 113.6869,29.2344 Q111.1869,29.2344 109.8587,27.5938 Q108.5462,25.9375 108.5462,22.8125 Q108.5462,19.6875 109.8587,18.0313 Q111.1869,16.375 113.6869,16.375 Q114.39,16.375 115.0306,16.5313 Q115.6869,16.6875 116.2494,16.9844 L116.2494,19.7031 Q115.6244,19.125 115.0306,18.8594 Q114.4369,18.5781 113.8119,18.5781 Q112.4681,18.5781 111.7806,19.6563 Q111.0931,20.7188 111.0931,22.8125 Q111.0931,24.9063 111.7806,25.9844 Q112.4681,27.0469 113.8119,27.0469 Q114.4369,27.0469 115.0306,26.7813 Q115.6244,26.5 116.2494,25.9219 L116.2494,28.6406 Z " fill="#000000"/><text fill="#000000" font-family="sans-serif" font-size="14" lengthAdjust="spacing" textLength="122.5975" x="133.7806" y="28.432">BorderedSentence</text><line style="stroke:#181818;stroke-width:0.5;" x1="8" x2="349.6588" y1="39" y2="39"/><line style="stroke:#181818;stroke-width:0.5;" x1="8" x2="349.6588" y1="47" y2="47"/><text fill="#000000" font-family="sans-serif" font-size="14" lengthAdjust="spacing" textLength="317.6588" x="27" y="65.9659">BorderedSentence(wrappedSentence: Sentence)</text><ellipse cx="18" cy="81.1019" fill="#84BE84" rx="3" ry="3" style="stroke:#038048;stroke-width:1;"/><text fill="#000000" font-family="sans-serif" font-size="14" lengthAdjust="spacing" textLength="108.1076" x="27" y="85.0339">toString(): String</text></g><!--class FancySentence--><g class="entity" data-entity="FancySentence" data-source-line="25" data-uid="ent0007" id="entity_FancySentence"><rect fill="#F1F1F1" height="86.1358" rx="2.5" ry="2.5" style="stroke:#181818;stroke-width:0.5;" width="319.1448" x="386.5" y="7"/><ellipse cx="492.7806" cy="23" fill="#ADD1B2" rx="11" ry="11" style="stroke:#181818;stroke-width:1;"/><path d="M495.7494,28.6406 Q495.1712,28.9375 494.5306,29.0781 Q493.89,29.2344 493.1869,29.2344 Q490.6869,29.2344 489.3587,27.5938 Q488.0462,25.9375 488.0462,22.8125 Q488.0462,19.6875 489.3587,18.0313 Q490.6869,16.375 493.1869,16.375 Q493.89,16.375 494.5306,16.5313 Q495.1869,16.6875 495.7494,16.9844 L495.7494,19.7031 Q495.1244,19.125 494.5306,18.8594 Q493.9369,18.5781 493.3119,18.5781 Q491.9681,18.5781 491.2806,19.6563 Q490.5931,20.7188 490.5931,22.8125 Q490.5931,24.9063 491.2806,25.9844 Q491.9681,27.0469 493.3119,27.0469 Q493.9369,27.0469 494.5306,26.7813 Q495.1244,26.5 495.7494,25.9219 L495.7494,28.6406 Z " fill="#000000"/><text fill="#000000" font-family="sans-serif" font-size="14" lengthAdjust="spacing" textLength="98.0836" x="513.2806" y="28.432">FancySentence</text><line style="stroke:#181818;stroke-width:0.5;" x1="387.5" x2="704.6448" y1="39" y2="39"/><line style="stroke:#181818;stroke-width:0.5;" x1="387.5" x2="704.6448" y1="47" y2="47"/><text fill="#000000" font-family="sans-serif" font-size="14" lengthAdjust="spacing" textLength="293.1448" x="406.5" y="65.9659">FancySentence(wrappedSentence: Sentence)</text><ellipse cx="397.5" cy="81.1019" fill="#84BE84" rx="3" ry="3" style="stroke:#038048;stroke-width:1;"/><text fill="#000000" font-family="sans-serif" font-size="14" lengthAdjust="spacing" textLength="108.1076" x="406.5" y="85.0339">toString(): String</text></g><!--class UpperCaseSentence--><g class="entity" data-entity="UpperCaseSentence" data-source-line="32" data-uid="ent0009" id="entity_UpperCaseSentence"><rect fill="#F1F1F1" height="86.1358" rx="2.5" ry="2.5" style="stroke:#181818;stroke-width:0.5;" width="353.9487" x="741" y="7"/><ellipse cx="847.2806" cy="23" fill="#ADD1B2" rx="11" ry="11" style="stroke:#181818;stroke-width:1;"/><path d="M850.2494,28.6406 Q849.6712,28.9375 849.0306,29.0781 Q848.39,29.2344 847.6869,29.2344 Q845.1869,29.2344 843.8587,27.5938 Q842.5462,25.9375 842.5462,22.8125 Q842.5462,19.6875 843.8587,18.0313 Q845.1869,16.375 847.6869,16.375 Q848.39,16.375 849.0306,16.5313 Q849.6869,16.6875 850.2494,16.9844 L850.2494,19.7031 Q849.6244,19.125 849.0306,18.8594 Q848.4369,18.5781 847.8119,18.5781 Q846.4681,18.5781 845.7806,19.6563 Q845.0931,20.7188 845.0931,22.8125 Q845.0931,24.9063 845.7806,25.9844 Q846.4681,27.0469 847.8119,27.0469 Q848.4369,27.0469 849.0306,26.7813 Q849.6244,26.5 850.2494,25.9219 L850.2494,28.6406 Z " fill="#000000"/><text fill="#000000" font-family="sans-serif" font-size="14" lengthAdjust="spacing" textLength="132.8875" x="867.7806" y="28.432">UpperCaseSentence</text><line style="stroke:#181818;stroke-width:0.5;" x1="742" x2="1093.9487" y1="39" y2="39"/><line style="stroke:#181818;stroke-width:0.5;" x1="742" x2="1093.9487" y1="47" y2="47"/><text fill="#000000" font-family="sans-serif" font-size="14" lengthAdjust="spacing" textLength="327.9487" x="761" y="65.9659">UpperCaseSentence(wrappedSentence: Sentence)</text><ellipse cx="752" cy="81.1019" fill="#84BE84" rx="3" ry="3" style="stroke:#038048;stroke-width:1;"/><text fill="#000000" font-family="sans-serif" font-size="14" lengthAdjust="spacing" textLength="108.1076" x="761" y="85.0339">toString(): String</text></g><!--link FormattedSentence to Sentence--><g class="link" data-entity-1="FormattedSentence" data-entity-2="Sentence" data-source-line="16" data-uid="lnk4" id="link_FormattedSentence_Sentence"><path codeLine="16" d="M534.2,258.26 C533.11,277.01 532.2402,280.3844 533.0202,299.8744" fill="none" id="FormattedSentence-to-Sentence" style="stroke:#181818;stroke-width:1;"/><polygon fill="none" points="533.74,317.86,539.0154,299.6345,527.025,300.1143,533.74,317.86" style="stroke:#181818;stroke-width:1;"/></g><!--link FormattedSentence to Sentence--><g class="link" data-entity-1="FormattedSentence" data-entity-2="Sentence" data-source-line="39" data-uid="lnk11" id="link_FormattedSentence_Sentence"><path codeLine="39" d="M558.49,258.26 C559.65,277.01 560.0653,292.3754 559.2353,311.8654" fill="none" id="FormattedSentence-to-Sentence-1" style="stroke:#181818;stroke-width:1;stroke-dasharray:7,7;"/><polygon fill="#181818" points="558.98,317.86,563.3593,309.0383,559.1927,312.8645,555.3665,308.698,558.98,317.86" style="stroke:#181818;stroke-width:1;"/></g><!--link BorderedSentence to FormattedSentence--><g class="link" data-entity-1="BorderedSentence" data-entity-2="FormattedSentence" data-source-line="23" data-uid="lnk6" id="link_BorderedSentence_FormattedSentence"><path codeLine="23" d="M279.77,93.15 C323.91,111.61 359.513,126.5069 405.963,145.9269" fill="none" id="BorderedSentence-to-FormattedSentence" style="stroke:#181818;stroke-width:1;"/><polygon fill="none" points="422.57,152.87,408.2774,140.3912,403.6486,151.4625,422.57,152.87" style="stroke:#181818;stroke-width:1;"/></g><!--link FancySentence to FormattedSentence--><g class="link" data-entity-1="FancySentence" data-entity-2="FormattedSentence" data-source-line="30" data-uid="lnk8" id="link_FancySentence_FormattedSentence"><path codeLine="30" d="M546,93.35 C546,111.81 546,115.61 546,135" fill="none" id="FancySentence-to-FormattedSentence" style="stroke:#181818;stroke-width:1;"/><polygon fill="none" points="546,153,552,135,540,135,546,153" style="stroke:#181818;stroke-width:1;"/></g><!--link UpperCaseSentence to FormattedSentence--><g class="link" data-entity-1="UpperCaseSentence" data-entity-2="FormattedSentence" data-source-line="37" data-uid="lnk10" id="link_UpperCaseSentence_FormattedSentence"><path codeLine="37" d="M815.86,93.15 C771.12,111.61 734.8294,126.5849 687.7594,146.0049" fill="none" id="UpperCaseSentence-to-FormattedSentence" style="stroke:#181818;stroke-width:1;"/><polygon fill="none" points="671.12,152.87,690.0478,151.5514,685.4711,140.4585,671.12,152.87" style="stroke:#181818;stroke-width:1;"/></g><!--SRC=[dP712i8m38RlVOg0bmtP7c383WexUHi-GEsA3BGRRM28xjsTxNIkiGpMK_Cd-Vir4LTk39HIeLH2iWU3uNp2g6jqPJ8urWPt9UfQNVBOLYJm9sKpMy36nL6SWRkD2TloLcTDFMECdmrgBX24nIaQVUE8ilAuY1vrchVj56TVT8UvWM116BPdv1r8acS-jJA7kH_-8pMXzEKbo024R-COw6X6c88hSVVdzQkjn9XvB32S1dzzu4Pw74HVoK9yWZnqWsawBV05]--></g></svg>