<svg xmlns="http://www.w3.org/2000/svg" xmlns:xlink="http://www.w3.org/1999/xlink" contentStyleType="text/css" data-diagram-type="CLASS" height="322px" preserveAspectRatio="none" style="width:1904px;height:322px;background:#FFFFFF;" version="1.1" viewBox="0 0 1904 322" width="1904px" zoomAndPan="magnify"><defs/><g><!--class Calculation--><g class="entity" data-entity="Calculation" data-source-line="1" data-uid="ent0002" id="entity_Calculation"><rect fill="#F1F1F1" height="162.4075" rx="2.5" ry="2.5" style="stroke:#181818;stroke-width:0.5;" width="435.4705" x="7" y="7"/><ellipse cx="184.0154" cy="23" fill="#ADD1B2" rx="11" ry="11" style="stroke:#181818;stroke-width:1;"/><path d="M186.9841,28.6406 Q186.406,28.9375 185.7654,29.0781 Q185.1248,29.2344 184.4216,29.2344 Q181.9216,29.2344 180.5935,27.5938 Q179.281,25.9375 179.281,22.8125 Q179.281,19.6875 180.5935,18.0313 Q181.9216,16.375 184.4216,16.375 Q185.1248,16.375 185.7654,16.5313 Q186.4216,16.6875 186.9841,16.9844 L186.9841,19.7031 Q186.3591,19.125 185.7654,18.8594 Q185.1716,18.5781 184.5466,18.5781 Q183.2029,18.5781 182.5154,19.6563 Q181.8279,20.7188 181.8279,22.8125 Q181.8279,24.9063 182.5154,25.9844 Q183.2029,27.0469 184.5466,27.0469 Q185.1716,27.0469 185.7654,26.7813 Q186.3591,26.5 186.9841,25.9219 L186.9841,28.6406 Z " fill="#000000"/><text fill="#000000" font-family="sans-serif" font-size="14" lengthAdjust="spacing" textLength="72.9397" x="204.5154" y="28.432">Calculation</text><line style="stroke:#181818;stroke-width:0.5;" x1="8" x2="441.4705" y1="39" y2="39"/><rect fill="none" height="6" style="stroke:#C82930;stroke-width:1;" width="6" x="15" y="51.034"/><text fill="#000000" font-family="sans-serif" font-size="14" lengthAdjust="spacing" textLength="108.6956" x="27" y="57.9659">answer: Fraction</text><rect fill="none" height="6" style="stroke:#C82930;stroke-width:1;" width="6" x="15" y="70.1019"/><text fill="#000000" font-family="sans-serif" font-size="14" lengthAdjust="spacing" textLength="82.1797" x="27" y="77.0339">left: Fraction</text><rect fill="none" height="6" style="stroke:#C82930;stroke-width:1;" width="6" x="15" y="89.1698"/><text fill="#000000" font-family="sans-serif" font-size="14" lengthAdjust="spacing" textLength="138.6555" x="27" y="96.1018">operation: Operation</text><rect fill="none" height="6" style="stroke:#C82930;stroke-width:1;" width="6" x="15" y="108.2377"/><text fill="#000000" font-family="sans-serif" font-size="14" lengthAdjust="spacing" textLength="92.5117" x="27" y="115.1697">right: Fraction</text><line style="stroke:#181818;stroke-width:0.5;" x1="8" x2="441.4705" y1="123.2717" y2="123.2717"/><text fill="#000000" font-family="sans-serif" font-size="14" lengthAdjust="spacing" textLength="409.4705" x="27" y="142.2376">Calculation(left: Fraction, right: Fraction, operation: Operation)</text><ellipse cx="18" cy="157.3735" fill="#84BE84" rx="3" ry="3" style="stroke:#038048;stroke-width:1;"/><text fill="#000000" font-family="sans-serif" font-size="14" lengthAdjust="spacing" textLength="108.1076" x="27" y="161.3055">toString(): String</text></g><!--class Addition--><g class="entity" data-entity="Addition" data-source-line="12" data-uid="ent0003" id="entity_Addition"><rect fill="#F1F1F1" height="105.2038" rx="2.5" ry="2.5" style="stroke:#181818;stroke-width:0.5;" width="328.8049" x="477" y="35.5"/><ellipse cx="609.3695" cy="51.5" fill="#ADD1B2" rx="11" ry="11" style="stroke:#181818;stroke-width:1;"/><path d="M612.3383,57.1406 Q611.7602,57.4375 611.1195,57.5781 Q610.4789,57.7344 609.7758,57.7344 Q607.2758,57.7344 605.9477,56.0938 Q604.6352,54.4375 604.6352,51.3125 Q604.6352,48.1875 605.9477,46.5313 Q607.2758,44.875 609.7758,44.875 Q610.4789,44.875 611.1195,45.0313 Q611.7758,45.1875 612.3383,45.4844 L612.3383,48.2031 Q611.7133,47.625 611.1195,47.3594 Q610.5258,47.0781 609.9008,47.0781 Q608.557,47.0781 607.8695,48.1563 Q607.182,49.2188 607.182,51.3125 Q607.182,53.4063 607.8695,54.4844 Q608.557,55.5469 609.9008,55.5469 Q610.5258,55.5469 611.1195,55.2813 Q611.7133,55 612.3383,54.4219 L612.3383,57.1406 Z " fill="#000000"/><text fill="#000000" font-family="sans-serif" font-size="14" lengthAdjust="spacing" textLength="55.5658" x="629.8695" y="56.932">Addition</text><line style="stroke:#181818;stroke-width:0.5;" x1="478" x2="804.8049" y1="67.5" y2="67.5"/><line style="stroke:#181818;stroke-width:0.5;" x1="478" x2="804.8049" y1="75.5" y2="75.5"/><text fill="#000000" font-family="sans-serif" font-size="14" lengthAdjust="spacing" textLength="63.9658" x="497" y="94.4659">Addition()</text><ellipse cx="488" cy="109.6019" fill="#84BE84" rx="3" ry="3" style="stroke:#038048;stroke-width:1;"/><text fill="#000000" font-family="sans-serif" font-size="14" lengthAdjust="spacing" textLength="302.8049" x="497" y="113.5339">execute(left: Fraction, right: Fraction): Fraction</text><ellipse cx="488" cy="128.6698" fill="#84BE84" rx="3" ry="3" style="stroke:#038048;stroke-width:1;"/><text fill="#000000" font-family="sans-serif" font-size="14" lengthAdjust="spacing" textLength="108.1076" x="497" y="132.6018">toString(): String</text></g><!--class Operation--><g class="entity" data-entity="Operation" data-source-line="18" data-uid="ent0004" id="entity_Operation"><rect fill="#F1F1F1" height="86.1358" rx="2.5" ry="2.5" style="stroke:#181818;stroke-width:0.5;" width="328.8049" x="841" y="229"/><ellipse cx="969.6736" cy="245" fill="#B4A7E5" rx="11" ry="11" style="stroke:#181818;stroke-width:1;"/><path d="M965.5954,240.7656 L965.5954,238.6094 L972.9861,238.6094 L972.9861,240.7656 L970.5173,240.7656 L970.5173,248.8438 L972.9861,248.8438 L972.9861,251 L965.5954,251 L965.5954,248.8438 L968.0642,248.8438 L968.0642,240.7656 L965.5954,240.7656 Z " fill="#000000"/><text fill="#000000" font-family="sans-serif" font-size="14" font-style="italic" lengthAdjust="spacing" textLength="62.9578" x="990.1736" y="250.432">Operation</text><line style="stroke:#181818;stroke-width:0.5;" x1="842" x2="1168.8049" y1="261" y2="261"/><line style="stroke:#181818;stroke-width:0.5;" x1="842" x2="1168.8049" y1="269" y2="269"/><ellipse cx="852" cy="284.034" fill="#84BE84" rx="3" ry="3" style="stroke:#038048;stroke-width:1;"/><text fill="#000000" font-family="sans-serif" font-size="14" lengthAdjust="spacing" textLength="302.8049" x="861" y="287.9659">execute(left: Fraction, right: Fraction): Fraction</text><ellipse cx="852" cy="303.1019" fill="#84BE84" rx="3" ry="3" style="stroke:#038048;stroke-width:1;"/><text fill="#000000" font-family="sans-serif" font-size="14" lengthAdjust="spacing" textLength="108.1076" x="861" y="307.0339">toString(): String</text></g><!--class Subtraction--><g class="entity" data-entity="Subtraction" data-source-line="20" data-uid="ent0006" id="entity_Subtraction"><rect fill="#F1F1F1" height="105.2038" rx="2.5" ry="2.5" style="stroke:#181818;stroke-width:0.5;" width="328.8049" x="841" y="35.5"/><ellipse cx="963.0796" cy="51.5" fill="#ADD1B2" rx="11" ry="11" style="stroke:#181818;stroke-width:1;"/><path d="M966.0483,57.1406 Q965.4702,57.4375 964.8296,57.5781 Q964.1889,57.7344 963.4858,57.7344 Q960.9858,57.7344 959.6577,56.0938 Q958.3452,54.4375 958.3452,51.3125 Q958.3452,48.1875 959.6577,46.5313 Q960.9858,44.875 963.4858,44.875 Q964.1889,44.875 964.8296,45.0313 Q965.4858,45.1875 966.0483,45.4844 L966.0483,48.2031 Q965.4233,47.625 964.8296,47.3594 Q964.2358,47.0781 963.6108,47.0781 Q962.2671,47.0781 961.5796,48.1563 Q960.8921,49.2188 960.8921,51.3125 Q960.8921,53.4063 961.5796,54.4844 Q962.2671,55.5469 963.6108,55.5469 Q964.2358,55.5469 964.8296,55.2813 Q965.4233,55 966.0483,54.4219 L966.0483,57.1406 Z " fill="#000000"/><text fill="#000000" font-family="sans-serif" font-size="14" lengthAdjust="spacing" textLength="76.1457" x="983.5796" y="56.932">Subtraction</text><line style="stroke:#181818;stroke-width:0.5;" x1="842" x2="1168.8049" y1="67.5" y2="67.5"/><line style="stroke:#181818;stroke-width:0.5;" x1="842" x2="1168.8049" y1="75.5" y2="75.5"/><text fill="#000000" font-family="sans-serif" font-size="14" lengthAdjust="spacing" textLength="84.5457" x="861" y="94.4659">Subtraction()</text><ellipse cx="852" cy="109.6019" fill="#84BE84" rx="3" ry="3" style="stroke:#038048;stroke-width:1;"/><text fill="#000000" font-family="sans-serif" font-size="14" lengthAdjust="spacing" textLength="302.8049" x="861" y="113.5339">execute(left: Fraction, right: Fraction): Fraction</text><ellipse cx="852" cy="128.6698" fill="#84BE84" rx="3" ry="3" style="stroke:#038048;stroke-width:1;"/><text fill="#000000" font-family="sans-serif" font-size="14" lengthAdjust="spacing" textLength="108.1076" x="861" y="132.6018">toString(): String</text></g><!--class Multiplication--><g class="entity" data-entity="Multiplication" data-source-line="28" data-uid="ent0008" id="entity_Multiplication"><rect fill="#F1F1F1" height="105.2038" rx="2.5" ry="2.5" style="stroke:#181818;stroke-width:0.5;" width="328.8049" x="1205" y="35.5"/><ellipse cx="1320.2406" cy="51.5" fill="#ADD1B2" rx="11" ry="11" style="stroke:#181818;stroke-width:1;"/><path d="M1323.2094,57.1406 Q1322.6312,57.4375 1321.9906,57.5781 Q1321.35,57.7344 1320.6469,57.7344 Q1318.1469,57.7344 1316.8187,56.0938 Q1315.5062,54.4375 1315.5062,51.3125 Q1315.5062,48.1875 1316.8187,46.5313 Q1318.1469,44.875 1320.6469,44.875 Q1321.35,44.875 1321.9906,45.0313 Q1322.6469,45.1875 1323.2094,45.4844 L1323.2094,48.2031 Q1322.5844,47.625 1321.9906,47.3594 Q1321.3969,47.0781 1320.7719,47.0781 Q1319.4281,47.0781 1318.7406,48.1563 Q1318.0531,49.2188 1318.0531,51.3125 Q1318.0531,53.4063 1318.7406,54.4844 Q1319.4281,55.5469 1320.7719,55.5469 Q1321.3969,55.5469 1321.9906,55.2813 Q1322.5844,55 1323.2094,54.4219 L1323.2094,57.1406 Z " fill="#000000"/><text fill="#000000" font-family="sans-serif" font-size="14" lengthAdjust="spacing" textLength="89.8237" x="1340.7406" y="56.932">Multiplication</text><line style="stroke:#181818;stroke-width:0.5;" x1="1206" x2="1532.8049" y1="67.5" y2="67.5"/><line style="stroke:#181818;stroke-width:0.5;" x1="1206" x2="1532.8049" y1="75.5" y2="75.5"/><text fill="#000000" font-family="sans-serif" font-size="14" lengthAdjust="spacing" textLength="98.2236" x="1225" y="94.4659">Multiplication()</text><ellipse cx="1216" cy="109.6019" fill="#84BE84" rx="3" ry="3" style="stroke:#038048;stroke-width:1;"/><text fill="#000000" font-family="sans-serif" font-size="14" lengthAdjust="spacing" textLength="302.8049" x="1225" y="113.5339">execute(left: Fraction, right: Fraction): Fraction</text><ellipse cx="1216" cy="128.6698" fill="#84BE84" rx="3" ry="3" style="stroke:#038048;stroke-width:1;"/><text fill="#000000" font-family="sans-serif" font-size="14" lengthAdjust="spacing" textLength="108.1076" x="1225" y="132.6018">toString(): String</text></g><!--class Division--><g class="entity" data-entity="Division" data-source-line="36" data-uid="ent0010" id="entity_Division"><rect fill="#F1F1F1" height="105.2038" rx="2.5" ry="2.5" style="stroke:#181818;stroke-width:0.5;" width="328.8049" x="1569" y="35.5"/><ellipse cx="1703.1545" cy="51.5" fill="#ADD1B2" rx="11" ry="11" style="stroke:#181818;stroke-width:1;"/><path d="M1706.1233,57.1406 Q1705.5452,57.4375 1704.9045,57.5781 Q1704.2639,57.7344 1703.5608,57.7344 Q1701.0608,57.7344 1699.7327,56.0938 Q1698.4202,54.4375 1698.4202,51.3125 Q1698.4202,48.1875 1699.7327,46.5313 Q1701.0608,44.875 1703.5608,44.875 Q1704.2639,44.875 1704.9045,45.0313 Q1705.5608,45.1875 1706.1233,45.4844 L1706.1233,48.2031 Q1705.4983,47.625 1704.9045,47.3594 Q1704.3108,47.0781 1703.6858,47.0781 Q1702.342,47.0781 1701.6545,48.1563 Q1700.967,49.2188 1700.967,51.3125 Q1700.967,53.4063 1701.6545,54.4844 Q1702.342,55.5469 1703.6858,55.5469 Q1704.3108,55.5469 1704.9045,55.2813 Q1705.4983,55 1706.1233,54.4219 L1706.1233,57.1406 Z " fill="#000000"/><text fill="#000000" font-family="sans-serif" font-size="14" lengthAdjust="spacing" textLength="51.9958" x="1723.6545" y="56.932">Division</text><line style="stroke:#181818;stroke-width:0.5;" x1="1570" x2="1896.8049" y1="67.5" y2="67.5"/><line style="stroke:#181818;stroke-width:0.5;" x1="1570" x2="1896.8049" y1="75.5" y2="75.5"/><text fill="#000000" font-family="sans-serif" font-size="14" lengthAdjust="spacing" textLength="60.3958" x="1589" y="94.4659">Division()</text><ellipse cx="1580" cy="109.6019" fill="#84BE84" rx="3" ry="3" style="stroke:#038048;stroke-width:1;"/><text fill="#000000" font-family="sans-serif" font-size="14" lengthAdjust="spacing" textLength="302.8049" x="1589" y="113.5339">execute(left: Fraction, right: Fraction): Fraction</text><ellipse cx="1580" cy="128.6698" fill="#84BE84" rx="3" ry="3" style="stroke:#038048;stroke-width:1;"/><text fill="#000000" font-family="sans-serif" font-size="14" lengthAdjust="spacing" textLength="108.1076" x="1589" y="132.6018">toString(): String</text></g><!--link Addition to Operation--><g class="link" data-entity-1="Addition" data-entity-2="Operation" data-source-line="18" data-uid="lnk5" id="link_Addition_Operation"><path codeLine="18" d="M744.83,140.67 C800.64,168.57 852.5603,194.5302 905.1203,220.8102" fill="none" id="Addition-to-Operation" style="stroke:#181818;stroke-width:1;stroke-dasharray:7,7;"/><polygon fill="none" points="921.22,228.86,907.8036,215.4436,902.437,226.1767,921.22,228.86" style="stroke:#181818;stroke-width:1;"/></g><!--link Subtraction to Operation--><g class="link" data-entity-1="Subtraction" data-entity-2="Operation" data-source-line="26" data-uid="lnk7" id="link_Subtraction_Operation"><path codeLine="26" d="M1005.5,140.67 C1005.5,168.52 1005.5,184.45 1005.5,210.71" fill="none" id="Subtraction-to-Operation" style="stroke:#181818;stroke-width:1;stroke-dasharray:7,7;"/><polygon fill="none" points="1005.5,228.71,1011.5,210.71,999.5,210.71,1005.5,228.71" style="stroke:#181818;stroke-width:1;"/></g><!--link Multiplication to Operation--><g class="link" data-entity-1="Multiplication" data-entity-2="Operation" data-source-line="34" data-uid="lnk9" id="link_Multiplication_Operation"><path codeLine="34" d="M1266.17,140.67 C1210.36,168.57 1158.4397,194.5302 1105.8797,220.8102" fill="none" id="Multiplication-to-Operation" style="stroke:#181818;stroke-width:1;stroke-dasharray:7,7;"/><polygon fill="none" points="1089.78,228.86,1108.563,226.1767,1103.1964,215.4436,1089.78,228.86" style="stroke:#181818;stroke-width:1;"/></g><!--link Division to Operation--><g class="link" data-entity-1="Division" data-entity-2="Operation" data-source-line="42" data-uid="lnk11" id="link_Division_Operation"><path codeLine="42" d="M1627.27,140.56 C1602.79,151.07 1576.56,161.26 1551.5,169 C1426.07,207.72 1297.4662,231.4655 1187.8362,247.6855" fill="none" id="Division-to-Operation" style="stroke:#181818;stroke-width:1;stroke-dasharray:7,7;"/><polygon fill="none" points="1170.03,250.32,1188.7143,253.6209,1186.958,241.7501,1170.03,250.32" style="stroke:#181818;stroke-width:1;"/></g><!--link Calculation to Operation--><g class="link" data-entity-1="Calculation" data-entity-2="Operation" data-source-line="51" data-uid="lnk12" id="link_Calculation_Operation"><path codeLine="51" d="M442.14,164.3 C447.97,165.92 453.77,167.5 459.5,169 C586.01,202.17 725.7978,227.8572 834.8578,245.5872" fill="none" id="Calculation-to-Operation" style="stroke:#181818;stroke-width:1;stroke-dasharray:7,7;"/><polygon fill="#181818" points="840.78,246.55,832.5385,241.1577,835.8448,245.7477,831.2548,249.054,840.78,246.55" style="stroke:#181818;stroke-width:1;"/></g><!--SRC=[jPD13e8m44NtFSKi8Ie7O65YDEwC2qvGIy596Y1jKHFqxYAqOL29RkXgvhVz_qsQ2iMDWIrNebRSObcmXa6xY18ecTaOzfgBLxi4ZVbv99ILrDtH68w-33kR5V32NAKUJZjvxEd4RpvkwospKnTWoyHgBF8WZA6ls8Cn9hgXDccAP2BV1g6xB6zIr5R-6Y_yBzNRGnJTrmJVmIJroNgNdeSeCo6HX0cgGwqiLWe5VVgnE1FRE6G2RuSND0EORsT2ylOVC5XOgJCk916RMH0O8_-kvI0OJm00]--></g></svg>