<svg xmlns="http://www.w3.org/2000/svg" xmlns:xlink="http://www.w3.org/1999/xlink" contentStyleType="text/css" data-diagram-type="CLASS" height="360px" preserveAspectRatio="none" style="width:900px;height:360px;background:#FFFFFF;" version="1.1" viewBox="0 0 900 360" width="900px" zoomAndPan="magnify"><defs/><g><!--class Printable--><g class="entity" data-entity="Printable" data-source-line="1" data-uid="ent0002" id="entity_Printable"><rect fill="#F1F1F1" height="67.0679" rx="2.5" ry="2.5" style="stroke:#181818;stroke-width:0.5;" width="134.1076" x="85" y="229"/><ellipse cx="120.5091" cy="245" fill="#B4A7E5" rx="11" ry="11" style="stroke:#181818;stroke-width:1;"/><path d="M116.431,240.7656 L116.431,238.6094 L123.8216,238.6094 L123.8216,240.7656 L121.3529,240.7656 L121.3529,248.8438 L123.8216,248.8438 L123.8216,251 L116.431,251 L116.431,248.8438 L118.8997,248.8438 L118.8997,240.7656 L116.431,240.7656 Z " fill="#000000"/><text fill="#000000" font-family="sans-serif" font-size="14" font-style="italic" lengthAdjust="spacing" textLength="56.5318" x="139.0667" y="250.432">Printable</text><line style="stroke:#181818;stroke-width:0.5;" x1="86" x2="218.1076" y1="261" y2="261"/><line style="stroke:#181818;stroke-width:0.5;" x1="86" x2="218.1076" y1="269" y2="269"/><ellipse cx="96" cy="284.034" fill="#84BE84" rx="3" ry="3" style="stroke:#038048;stroke-width:1;"/><text fill="#000000" font-family="sans-serif" font-size="14" lengthAdjust="spacing" textLength="108.1076" x="105" y="287.9659">toString(): String</text></g><!--class PrintableShipment--><g class="entity" data-entity="PrintableShipment" data-source-line="7" data-uid="ent0003" id="entity_PrintableShipment"><rect fill="#F1F1F1" height="105.2038" rx="2.5" ry="2.5" style="stroke:#181818;stroke-width:0.5;" width="290.109" x="7" y="7"/><ellipse cx="86.4077" cy="23" fill="#ADD1B2" rx="11" ry="11" style="stroke:#181818;stroke-width:1;"/><path d="M89.3765,28.6406 Q88.7983,28.9375 88.1577,29.0781 Q87.5171,29.2344 86.814,29.2344 Q84.314,29.2344 82.9858,27.5938 Q81.6733,25.9375 81.6733,22.8125 Q81.6733,19.6875 82.9858,18.0313 Q84.314,16.375 86.814,16.375 Q87.5171,16.375 88.1577,16.5313 Q88.814,16.6875 89.3765,16.9844 L89.3765,19.7031 Q88.7515,19.125 88.1577,18.8594 Q87.564,18.5781 86.939,18.5781 Q85.5952,18.5781 84.9077,19.6563 Q84.2202,20.7188 84.2202,22.8125 Q84.2202,24.9063 84.9077,25.9844 Q85.5952,27.0469 86.939,27.0469 Q87.564,27.0469 88.1577,26.7813 Q88.7515,26.5 89.3765,25.9219 L89.3765,28.6406 Z " fill="#000000"/><text fill="#000000" font-family="sans-serif" font-size="14" lengthAdjust="spacing" textLength="122.7935" x="106.9077" y="28.432">PrintableShipment</text><line style="stroke:#181818;stroke-width:0.5;" x1="8" x2="296.109" y1="39" y2="39"/><rect fill="none" height="6" style="stroke:#C82930;stroke-width:1;" width="6" x="15" y="51.034"/><text fill="#000000" font-family="sans-serif" font-size="14" lengthAdjust="spacing" textLength="132.9155" x="27" y="57.9659">shipment: Shipment</text><line style="stroke:#181818;stroke-width:0.5;" x1="8" x2="296.109" y1="66.0679" y2="66.0679"/><text fill="#000000" font-family="sans-serif" font-size="14" lengthAdjust="spacing" textLength="264.109" x="27" y="85.0339">PrintableShipment(shipment: Shipment)</text><ellipse cx="18" cy="100.1698" fill="#84BE84" rx="3" ry="3" style="stroke:#038048;stroke-width:1;"/><text fill="#000000" font-family="sans-serif" font-size="14" lengthAdjust="spacing" textLength="108.1076" x="27" y="104.1018">toString(): String</text></g><!--class Shipment--><g class="entity" data-entity="Shipment" data-source-line="15" data-uid="ent0005" id="entity_Shipment"><rect fill="#F1F1F1" height="181.4754" rx="2.5" ry="2.5" style="stroke:#181818;stroke-width:0.5;" width="510.3562" x="306" y="172"/><ellipse cx="525.3022" cy="188" fill="#ADD1B2" rx="11" ry="11" style="stroke:#181818;stroke-width:1;"/><path d="M528.271,193.6406 Q527.6929,193.9375 527.0522,194.0781 Q526.4116,194.2344 525.7085,194.2344 Q523.2085,194.2344 521.8804,192.5938 Q520.5679,190.9375 520.5679,187.8125 Q520.5679,184.6875 521.8804,183.0313 Q523.2085,181.375 525.7085,181.375 Q526.4116,181.375 527.0522,181.5313 Q527.7085,181.6875 528.271,181.9844 L528.271,184.7031 Q527.646,184.125 527.0522,183.8594 Q526.4585,183.5781 525.8335,183.5781 Q524.4897,183.5781 523.8022,184.6563 Q523.1147,185.7188 523.1147,187.8125 Q523.1147,189.9063 523.8022,190.9844 Q524.4897,192.0469 525.8335,192.0469 Q526.4585,192.0469 527.0522,191.7813 Q527.646,191.5 528.271,190.9219 L528.271,193.6406 Z " fill="#000000"/><text fill="#000000" font-family="sans-serif" font-size="14" lengthAdjust="spacing" textLength="63.2518" x="545.8022" y="193.432">Shipment</text><line style="stroke:#181818;stroke-width:0.5;" x1="307" x2="815.3562" y1="204" y2="204"/><polygon fill="none" points="317,214.034,321,218.034,317,222.034,313,218.034" style="stroke:#B38D22;stroke-width:1;"/><text fill="#000000" font-family="sans-serif" font-size="14" lengthAdjust="spacing" textLength="112.3215" x="326" y="222.9659">delivery: Delivery</text><polygon fill="none" points="317,233.1019,321,237.1019,317,241.1019,313,237.1019" style="stroke:#B38D22;stroke-width:1;"/><text fill="#000000" font-family="sans-serif" font-size="14" lengthAdjust="spacing" textLength="144.3675" x="326" y="242.0339">orderList: List&lt;Order&gt;</text><polygon fill="none" points="317,252.1698,321,256.1698,317,260.1698,313,256.1698" style="stroke:#B38D22;stroke-width:1;"/><text fill="#000000" font-family="sans-serif" font-size="14" lengthAdjust="spacing" textLength="154.3214" x="326" y="261.1018">processDate: LocalDate</text><line style="stroke:#181818;stroke-width:0.5;" x1="307" x2="815.3562" y1="269.2038" y2="269.2038"/><text fill="#000000" font-family="sans-serif" font-size="14" lengthAdjust="spacing" textLength="484.3562" x="326" y="288.1697">Shipment(orderList: List&lt;Order&gt;, processDate: LocalDate, location: String)</text><ellipse cx="317" cy="303.3056" fill="#84BE84" rx="3" ry="3" style="stroke:#038048;stroke-width:1;"/><text fill="#000000" font-family="sans-serif" font-size="14" lengthAdjust="spacing" textLength="249.115" x="326" y="307.2376">newDelivery(location: String): Delivery</text><ellipse cx="317" cy="322.3735" fill="#84BE84" rx="3" ry="3" style="stroke:#038048;stroke-width:1;"/><text fill="#000000" font-family="sans-serif" font-size="14" lengthAdjust="spacing" textLength="162.4134" x="326" y="326.3055">shipmentDetails(): String</text><ellipse cx="317" cy="341.4415" fill="#84BE84" rx="3" ry="3" style="stroke:#038048;stroke-width:1;"/><text fill="#000000" font-family="sans-serif" font-size="14" lengthAdjust="spacing" textLength="110.5716" x="326" y="345.3734">totalPrice(): Float</text></g><!--class ExpressShipment--><g class="entity" data-entity="ExpressShipment" data-source-line="27" data-uid="ent0006" id="entity_ExpressShipment"><rect fill="#F1F1F1" height="86.1358" rx="2.5" ry="2.5" style="stroke:#181818;stroke-width:0.5;" width="561.246" x="332.5" y="16.5"/><ellipse cx="551.8022" cy="32.5" fill="#ADD1B2" rx="11" ry="11" style="stroke:#181818;stroke-width:1;"/><path d="M554.771,38.1406 Q554.1928,38.4375 553.5522,38.5781 Q552.9116,38.7344 552.2085,38.7344 Q549.7085,38.7344 548.3803,37.0938 Q547.0678,35.4375 547.0678,32.3125 Q547.0678,29.1875 548.3803,27.5313 Q549.7085,25.875 552.2085,25.875 Q552.9116,25.875 553.5522,26.0313 Q554.2085,26.1875 554.771,26.4844 L554.771,29.2031 Q554.146,28.625 553.5522,28.3594 Q552.9585,28.0781 552.3335,28.0781 Q550.9897,28.0781 550.3022,29.1563 Q549.6147,30.2188 549.6147,32.3125 Q549.6147,34.4063 550.3022,35.4844 Q550.9897,36.5469 552.3335,36.5469 Q552.9585,36.5469 553.5522,36.2813 Q554.146,36 554.771,35.4219 L554.771,38.1406 Z " fill="#000000"/><text fill="#000000" font-family="sans-serif" font-size="14" lengthAdjust="spacing" textLength="114.1416" x="572.3022" y="37.932">ExpressShipment</text><line style="stroke:#181818;stroke-width:0.5;" x1="333.5" x2="892.746" y1="48.5" y2="48.5"/><line style="stroke:#181818;stroke-width:0.5;" x1="333.5" x2="892.746" y1="56.5" y2="56.5"/><text fill="#000000" font-family="sans-serif" font-size="14" lengthAdjust="spacing" textLength="535.246" x="352.5" y="75.4659">ExpressShipment(orderList: List&lt;Order&gt;, processDate: LocalDate, location: String)</text><ellipse cx="343.5" cy="90.6019" fill="#84BE84" rx="3" ry="3" style="stroke:#038048;stroke-width:1;"/><text fill="#000000" font-family="sans-serif" font-size="14" lengthAdjust="spacing" textLength="300.0048" x="352.5" y="94.5339">newDelivery(location: String): ExpressDelivery</text></g><!--link PrintableShipment to Printable--><g class="link" data-entity-1="PrintableShipment" data-entity-2="Printable" data-source-line="13" data-uid="lnk4" id="link_PrintableShipment_Printable"><path codeLine="13" d="M152,112 C152,148.76 152,179.09 152,210.71" fill="none" id="PrintableShipment-to-Printable" style="stroke:#181818;stroke-width:1;stroke-dasharray:7,7;"/><polygon fill="none" points="152,228.71,158,210.71,146,210.71,152,228.71" style="stroke:#181818;stroke-width:1;"/></g><!--link ExpressShipment to Shipment--><g class="link" data-entity-1="ExpressShipment" data-entity-2="Shipment" data-source-line="32" data-uid="lnk7" id="link_ExpressShipment_Shipment"><path codeLine="32" d="M602.1,102.64 C596.89,122.78 594.9518,130.2846 588.7118,154.3846" fill="none" id="ExpressShipment-to-Shipment" style="stroke:#181818;stroke-width:1;"/><polygon fill="none" points="584.2,171.81,594.5203,155.8886,582.9033,152.8807,584.2,171.81" style="stroke:#181818;stroke-width:1;"/></g><!--link PrintableShipment to Shipment--><g class="link" data-entity-1="PrintableShipment" data-entity-2="Shipment" data-source-line="34" data-uid="lnk8" id="link_PrintableShipment_Shipment"><path codeLine="34" d="M256.8,112 C293.96,130.26 331.5452,148.7334 373.2752,169.2434" fill="none" id="PrintableShipment-to-Shipment" style="stroke:#181818;stroke-width:1;stroke-dasharray:7,7;"/><polygon fill="#181818" points="378.66,171.89,372.3472,164.3303,374.1727,169.6845,368.8185,171.51,378.66,171.89" style="stroke:#181818;stroke-width:1;"/></g><!--SRC=[hLBBRi8m4BpxArRg9GZ21w2AKzeJ4aXyWMkshINNZkmL3m7_tatPXCY9oWKVeicElJCxjlM4yLCRX4sqdlI7GtLMm6iA5BR4nQzYie0RKbUbb74wfVlsxRUjVz2J71lKYoI0cmYQ_EqiOSZyfppe3FFvPTdpBSuoGvsF47SOLpQnNFDzNJV_ondKCHXCgTA4p0IZNGDdu1YI3RwrS7Fz0ZjqTe_nj81Aa13Z0aAEgyYy7Wzjhs8Wc-bCkzWg96rTweNKfaVQSIm66-hT1KszYtixrf6DP2bbrIU5zN0oaUq6lAhC29Gbtt5dTlGHtFbV]--></g></svg>