<svg xmlns="http://www.w3.org/2000/svg" xmlns:xlink="http://www.w3.org/1999/xlink" contentStyleType="text/css" data-diagram-type="CLASS" height="417px" preserveAspectRatio="none" style="width:526px;height:417px;background:#FFFFFF;" version="1.1" viewBox="0 0 526 417" width="526px" zoomAndPan="magnify"><defs/><g><!--class StandardDelivery--><g class="entity" data-entity="StandardDelivery" data-source-line="1" data-uid="ent0002" id="entity_StandardDelivery"><rect fill="#F1F1F1" height="181.4754" rx="2.5" ry="2.5" style="stroke:#181818;stroke-width:0.5;" width="411.1945" x="58.5" y="229"/><ellipse cx="203.1615" cy="245" fill="#ADD1B2" rx="11" ry="11" style="stroke:#181818;stroke-width:1;"/><path d="M206.1302,250.6406 Q205.5521,250.9375 204.9115,251.0781 Q204.2709,251.2344 203.5677,251.2344 Q201.0677,251.2344 199.7396,249.5938 Q198.4271,247.9375 198.4271,244.8125 Q198.4271,241.6875 199.7396,240.0313 Q201.0677,238.375 203.5677,238.375 Q204.2709,238.375 204.9115,238.5313 Q205.5677,238.6875 206.1302,238.9844 L206.1302,241.7031 Q205.5052,241.125 204.9115,240.8594 Q204.3177,240.5781 203.6927,240.5781 Q202.349,240.5781 201.6615,241.6563 Q200.974,242.7188 200.974,244.8125 Q200.974,246.9063 201.6615,247.9844 Q202.349,249.0469 203.6927,249.0469 Q204.3177,249.0469 204.9115,248.7813 Q205.5052,248.5 206.1302,247.9219 L206.1302,250.6406 Z " fill="#000000"/><text fill="#000000" font-family="sans-serif" font-size="14" lengthAdjust="spacing" textLength="113.3716" x="223.6615" y="250.432">StandardDelivery</text><line style="stroke:#181818;stroke-width:0.5;" x1="59.5" x2="468.6945" y1="261" y2="261"/><rect fill="none" height="6" style="stroke:#C82930;stroke-width:1;" width="6" x="66.5" y="273.034"/><text fill="#000000" font-family="sans-serif" font-size="14" lengthAdjust="spacing" textLength="139.4535" x="78.5" y="279.9659">deliveryStatus: String</text><rect fill="none" height="6" style="stroke:#C82930;stroke-width:1;" width="6" x="66.5" y="292.1019"/><text fill="#000000" font-family="sans-serif" font-size="14" lengthAdjust="spacing" textLength="99.2316" x="78.5" y="299.0339">location: String</text><line style="stroke:#181818;stroke-width:0.5;" x1="59.5" x2="468.6945" y1="307.1358" y2="307.1358"/><text fill="#000000" font-family="sans-serif" font-size="14" lengthAdjust="spacing" textLength="221.0032" x="78.5" y="326.1018">StandardDelivery(location: String)</text><ellipse cx="69.5" cy="341.2377" fill="#84BE84" rx="3" ry="3" style="stroke:#038048;stroke-width:1;"/><text fill="#000000" font-family="sans-serif" font-size="14" lengthAdjust="spacing" textLength="266.405" x="78.5" y="345.1697">changeDeliveryStatus(newStatus: String)</text><ellipse cx="69.5" cy="360.3056" fill="#84BE84" rx="3" ry="3" style="stroke:#038048;stroke-width:1;"/><text fill="#000000" font-family="sans-serif" font-size="14" lengthAdjust="spacing" textLength="151.8014" x="78.5" y="364.2376">deliveryDetails(): String</text><ellipse cx="69.5" cy="379.3735" fill="#84BE84" rx="3" ry="3" style="stroke:#038048;stroke-width:1;"/><text fill="#000000" font-family="sans-serif" font-size="14" lengthAdjust="spacing" textLength="122.7655" x="78.5" y="383.3055">deliveryFee(): Float</text><ellipse cx="69.5" cy="398.4415" fill="#84BE84" rx="3" ry="3" style="stroke:#038048;stroke-width:1;"/><text fill="#000000" font-family="sans-serif" font-size="14" lengthAdjust="spacing" textLength="385.1945" x="78.5" y="402.3734">estimatedDeliveryDate(processDate: LocalDate): LocalDate</text></g><!--class Shipment--><g class="entity" data-entity="Shipment" data-source-line="13" data-uid="ent0003" id="entity_Shipment"><rect fill="#F1F1F1" height="162.4075" rx="2.5" ry="2.5" style="stroke:#181818;stroke-width:0.5;" width="510.3562" x="9" y="7"/><ellipse cx="228.3022" cy="23" fill="#ADD1B2" rx="11" ry="11" style="stroke:#181818;stroke-width:1;"/><path d="M231.271,28.6406 Q230.6929,28.9375 230.0522,29.0781 Q229.4116,29.2344 228.7085,29.2344 Q226.2085,29.2344 224.8804,27.5938 Q223.5679,25.9375 223.5679,22.8125 Q223.5679,19.6875 224.8804,18.0313 Q226.2085,16.375 228.7085,16.375 Q229.4116,16.375 230.0522,16.5313 Q230.7085,16.6875 231.271,16.9844 L231.271,19.7031 Q230.646,19.125 230.0522,18.8594 Q229.4585,18.5781 228.8335,18.5781 Q227.4897,18.5781 226.8022,19.6563 Q226.1147,20.7188 226.1147,22.8125 Q226.1147,24.9063 226.8022,25.9844 Q227.4897,27.0469 228.8335,27.0469 Q229.4585,27.0469 230.0522,26.7813 Q230.646,26.5 231.271,25.9219 L231.271,28.6406 Z " fill="#000000"/><text fill="#000000" font-family="sans-serif" font-size="14" lengthAdjust="spacing" textLength="63.2518" x="248.8022" y="28.432">Shipment</text><line style="stroke:#181818;stroke-width:0.5;" x1="10" x2="518.3562" y1="39" y2="39"/><polygon fill="none" points="20,49.034,24,53.034,20,57.034,16,53.034" style="stroke:#B38D22;stroke-width:1;"/><text fill="#000000" font-family="sans-serif" font-size="14" lengthAdjust="spacing" textLength="172.4233" x="29" y="57.9659">delivery: StandardDelivery</text><polygon fill="none" points="20,68.1019,24,72.1019,20,76.1019,16,72.1019" style="stroke:#B38D22;stroke-width:1;"/><text fill="#000000" font-family="sans-serif" font-size="14" lengthAdjust="spacing" textLength="144.3675" x="29" y="77.0339">orderList: List&lt;Order&gt;</text><polygon fill="none" points="20,87.1698,24,91.1698,20,95.1698,16,91.1698" style="stroke:#B38D22;stroke-width:1;"/><text fill="#000000" font-family="sans-serif" font-size="14" lengthAdjust="spacing" textLength="154.3214" x="29" y="96.1018">processDate: LocalDate</text><line style="stroke:#181818;stroke-width:0.5;" x1="10" x2="518.3562" y1="104.2038" y2="104.2038"/><text fill="#000000" font-family="sans-serif" font-size="14" lengthAdjust="spacing" textLength="484.3562" x="29" y="123.1697">Shipment(orderList: List&lt;Order&gt;, processDate: LocalDate, location: String)</text><ellipse cx="20" cy="138.3056" fill="#84BE84" rx="3" ry="3" style="stroke:#038048;stroke-width:1;"/><text fill="#000000" font-family="sans-serif" font-size="14" lengthAdjust="spacing" textLength="162.4134" x="29" y="142.2376">shipmentDetails(): String</text><ellipse cx="20" cy="157.3735" fill="#84BE84" rx="3" ry="3" style="stroke:#038048;stroke-width:1;"/><text fill="#000000" font-family="sans-serif" font-size="14" lengthAdjust="spacing" textLength="110.5716" x="29" y="161.3055">totalPrice(): Float</text></g><!--link Shipment to StandardDelivery--><g class="link" data-entity-1="Shipment" data-entity-2="StandardDelivery" data-source-line="24" data-uid="lnk4" id="link_Shipment_StandardDelivery"><path codeLine="24" d="M264,169.27 C264,188.53 264,203.22 264,222.87" fill="none" id="Shipment-to-StandardDelivery" style="stroke:#181818;stroke-width:1;stroke-dasharray:7,7;"/><polygon fill="#181818" points="264,228.87,268,219.87,264,223.87,260,219.87,264,228.87" style="stroke:#181818;stroke-width:1;"/></g><!--SRC=[TL5B2W8n3Dtt50Kt7VmSO11NWoj1mHE4Jj12RQM9YeXtjtNQGSUnYvBqvIKlhze2aTmpk1P2sw0rLmntyH0odk6pibu36-_g20NZ3jMxR2xRN109VA62Pd18UZzFfJw2Es3pnLGERzyzgbnT9ZJ8O2ofQj2ju6l4XAsj1yuG4fiJCFPhD35Hv-0r4gMubfieqQQm-eZ5KmYXEt-Evdn2nyMNd2eVMWmRGnnfyLvkKxwQoV7cCpdktwHNN__-H5SmFYY3uzFozfIr_ZEEFOFT1QC_V4kBbntbOh7wKVK2]--></g></svg>