<svg xmlns="http://www.w3.org/2000/svg" xmlns:xlink="http://www.w3.org/1999/xlink" contentStyleType="text/css" data-diagram-type="CLASS" height="525px" preserveAspectRatio="none" style="width:1417px;height:525px;background:#FFFFFF;" version="1.1" viewBox="0 0 1417 525" width="1417px" zoomAndPan="magnify"><defs/><g><!--class Delivery--><g class="entity" data-entity="Delivery" data-source-line="1" data-uid="ent0002" id="entity_Delivery"><rect fill="#F1F1F1" height="124.2717" rx="2.5" ry="2.5" style="stroke:#181818;stroke-width:0.5;" width="411.1945" x="503" y="394"/><ellipse cx="679.7564" cy="410" fill="#B4A7E5" rx="11" ry="11" style="stroke:#181818;stroke-width:1;"/><path d="M675.6782,405.7656 L675.6782,403.6094 L683.0689,403.6094 L683.0689,405.7656 L680.6001,405.7656 L680.6001,413.8438 L683.0689,413.8438 L683.0689,416 L675.6782,416 L675.6782,413.8438 L678.147,413.8438 L678.147,405.7656 L675.6782,405.7656 Z " fill="#000000"/><text fill="#000000" font-family="sans-serif" font-size="14" font-style="italic" lengthAdjust="spacing" textLength="49.1818" x="700.2564" y="415.432">Delivery</text><line style="stroke:#181818;stroke-width:0.5;" x1="504" x2="913.1945" y1="426" y2="426"/><line style="stroke:#181818;stroke-width:0.5;" x1="504" x2="913.1945" y1="434" y2="434"/><ellipse cx="514" cy="449.034" fill="#84BE84" rx="3" ry="3" style="stroke:#038048;stroke-width:1;"/><text fill="#000000" font-family="sans-serif" font-size="14" lengthAdjust="spacing" textLength="266.405" x="523" y="452.9659">changeDeliveryStatus(newStatus: String)</text><ellipse cx="514" cy="468.1019" fill="#84BE84" rx="3" ry="3" style="stroke:#038048;stroke-width:1;"/><text fill="#000000" font-family="sans-serif" font-size="14" lengthAdjust="spacing" textLength="151.8014" x="523" y="472.0339">deliveryDetails(): String</text><ellipse cx="514" cy="487.1698" fill="#84BE84" rx="3" ry="3" style="stroke:#038048;stroke-width:1;"/><text fill="#000000" font-family="sans-serif" font-size="14" lengthAdjust="spacing" textLength="122.7655" x="523" y="491.1018">deliveryFee(): Float</text><ellipse cx="514" cy="506.2377" fill="#84BE84" rx="3" ry="3" style="stroke:#038048;stroke-width:1;"/><text fill="#000000" font-family="sans-serif" font-size="14" lengthAdjust="spacing" textLength="385.1945" x="523" y="510.1697">estimatedDeliveryDate(processDate: LocalDate): LocalDate</text></g><!--class StandardDelivery--><g class="entity" data-entity="StandardDelivery" data-source-line="10" data-uid="ent0003" id="entity_StandardDelivery"><rect fill="#F1F1F1" height="181.4754" rx="2.5" ry="2.5" style="stroke:#181818;stroke-width:0.5;" width="411.1945" x="7" y="153"/><ellipse cx="151.6615" cy="169" fill="#ADD1B2" rx="11" ry="11" style="stroke:#181818;stroke-width:1;"/><path d="M154.6302,174.6406 Q154.0521,174.9375 153.4115,175.0781 Q152.7709,175.2344 152.0677,175.2344 Q149.5677,175.2344 148.2396,173.5938 Q146.9271,171.9375 146.9271,168.8125 Q146.9271,165.6875 148.2396,164.0313 Q149.5677,162.375 152.0677,162.375 Q152.7709,162.375 153.4115,162.5313 Q154.0677,162.6875 154.6302,162.9844 L154.6302,165.7031 Q154.0052,165.125 153.4115,164.8594 Q152.8177,164.5781 152.1927,164.5781 Q150.849,164.5781 150.1615,165.6563 Q149.474,166.7188 149.474,168.8125 Q149.474,170.9063 150.1615,171.9844 Q150.849,173.0469 152.1927,173.0469 Q152.8177,173.0469 153.4115,172.7813 Q154.0052,172.5 154.6302,171.9219 L154.6302,174.6406 Z " fill="#000000"/><text fill="#000000" font-family="sans-serif" font-size="14" lengthAdjust="spacing" textLength="113.3716" x="172.1615" y="174.432">StandardDelivery</text><line style="stroke:#181818;stroke-width:0.5;" x1="8" x2="417.1945" y1="185" y2="185"/><rect fill="none" height="6" style="stroke:#C82930;stroke-width:1;" width="6" x="15" y="197.034"/><text fill="#000000" font-family="sans-serif" font-size="14" lengthAdjust="spacing" textLength="139.4535" x="27" y="203.9659">deliveryStatus: String</text><rect fill="none" height="6" style="stroke:#C82930;stroke-width:1;" width="6" x="15" y="216.1019"/><text fill="#000000" font-family="sans-serif" font-size="14" lengthAdjust="spacing" textLength="99.2316" x="27" y="223.0339">location: String</text><line style="stroke:#181818;stroke-width:0.5;" x1="8" x2="417.1945" y1="231.1358" y2="231.1358"/><text fill="#000000" font-family="sans-serif" font-size="14" lengthAdjust="spacing" textLength="221.0032" x="27" y="250.1018">StandardDelivery(location: String)</text><ellipse cx="18" cy="265.2377" fill="#84BE84" rx="3" ry="3" style="stroke:#038048;stroke-width:1;"/><text fill="#000000" font-family="sans-serif" font-size="14" lengthAdjust="spacing" textLength="266.405" x="27" y="269.1697">changeDeliveryStatus(newStatus: String)</text><ellipse cx="18" cy="284.3056" fill="#84BE84" rx="3" ry="3" style="stroke:#038048;stroke-width:1;"/><text fill="#000000" font-family="sans-serif" font-size="14" lengthAdjust="spacing" textLength="151.8014" x="27" y="288.2376">deliveryDetails(): String</text><ellipse cx="18" cy="303.3735" fill="#84BE84" rx="3" ry="3" style="stroke:#038048;stroke-width:1;"/><text fill="#000000" font-family="sans-serif" font-size="14" lengthAdjust="spacing" textLength="122.7655" x="27" y="307.3055">deliveryFee(): Float</text><ellipse cx="18" cy="322.4415" fill="#84BE84" rx="3" ry="3" style="stroke:#038048;stroke-width:1;"/><text fill="#000000" font-family="sans-serif" font-size="14" lengthAdjust="spacing" textLength="385.1945" x="27" y="326.3734">estimatedDeliveryDate(processDate: LocalDate): LocalDate</text></g><!--class Shipment--><g class="entity" data-entity="Shipment" data-source-line="22" data-uid="ent0005" id="entity_Shipment"><rect fill="#F1F1F1" height="181.4754" rx="2.5" ry="2.5" style="stroke:#181818;stroke-width:0.5;" width="510.3562" x="453.5" y="153"/><ellipse cx="672.8022" cy="169" fill="#ADD1B2" rx="11" ry="11" style="stroke:#181818;stroke-width:1;"/><path d="M675.771,174.6406 Q675.1929,174.9375 674.5522,175.0781 Q673.9116,175.2344 673.2085,175.2344 Q670.7085,175.2344 669.3804,173.5938 Q668.0679,171.9375 668.0679,168.8125 Q668.0679,165.6875 669.3804,164.0313 Q670.7085,162.375 673.2085,162.375 Q673.9116,162.375 674.5522,162.5313 Q675.2085,162.6875 675.771,162.9844 L675.771,165.7031 Q675.146,165.125 674.5522,164.8594 Q673.9585,164.5781 673.3335,164.5781 Q671.9897,164.5781 671.3022,165.6563 Q670.6147,166.7188 670.6147,168.8125 Q670.6147,170.9063 671.3022,171.9844 Q671.9897,173.0469 673.3335,173.0469 Q673.9585,173.0469 674.5522,172.7813 Q675.146,172.5 675.771,171.9219 L675.771,174.6406 Z " fill="#000000"/><text fill="#000000" font-family="sans-serif" font-size="14" lengthAdjust="spacing" textLength="63.2518" x="693.3022" y="174.432">Shipment</text><line style="stroke:#181818;stroke-width:0.5;" x1="454.5" x2="962.8562" y1="185" y2="185"/><polygon fill="none" points="464.5,195.034,468.5,199.034,464.5,203.034,460.5,199.034" style="stroke:#B38D22;stroke-width:1;"/><text fill="#000000" font-family="sans-serif" font-size="14" lengthAdjust="spacing" textLength="112.3215" x="473.5" y="203.9659">delivery: Delivery</text><polygon fill="none" points="464.5,214.1019,468.5,218.1019,464.5,222.1019,460.5,218.1019" style="stroke:#B38D22;stroke-width:1;"/><text fill="#000000" font-family="sans-serif" font-size="14" lengthAdjust="spacing" textLength="144.3675" x="473.5" y="223.0339">orderList: List&lt;Order&gt;</text><polygon fill="none" points="464.5,233.1698,468.5,237.1698,464.5,241.1698,460.5,237.1698" style="stroke:#B38D22;stroke-width:1;"/><text fill="#000000" font-family="sans-serif" font-size="14" lengthAdjust="spacing" textLength="154.3214" x="473.5" y="242.1018">processDate: LocalDate</text><line style="stroke:#181818;stroke-width:0.5;" x1="454.5" x2="962.8562" y1="250.2038" y2="250.2038"/><text fill="#000000" font-family="sans-serif" font-size="14" lengthAdjust="spacing" textLength="484.3562" x="473.5" y="269.1697">Shipment(orderList: List&lt;Order&gt;, processDate: LocalDate, location: String)</text><ellipse cx="464.5" cy="284.3056" fill="#84BE84" rx="3" ry="3" style="stroke:#038048;stroke-width:1;"/><text fill="#000000" font-family="sans-serif" font-size="14" lengthAdjust="spacing" textLength="249.115" x="473.5" y="288.2376">newDelivery(location: String): Delivery</text><ellipse cx="464.5" cy="303.3735" fill="#84BE84" rx="3" ry="3" style="stroke:#038048;stroke-width:1;"/><text fill="#000000" font-family="sans-serif" font-size="14" lengthAdjust="spacing" textLength="162.4134" x="473.5" y="307.3055">shipmentDetails(): String</text><ellipse cx="464.5" cy="322.4415" fill="#84BE84" rx="3" ry="3" style="stroke:#038048;stroke-width:1;"/><text fill="#000000" font-family="sans-serif" font-size="14" lengthAdjust="spacing" textLength="110.5716" x="473.5" y="326.3734">totalPrice(): Float</text></g><!--class ExpressDelivery--><g class="entity" data-entity="ExpressDelivery" data-source-line="34" data-uid="ent0006" id="entity_ExpressDelivery"><rect fill="#F1F1F1" height="181.4754" rx="2.5" ry="2.5" style="stroke:#181818;stroke-width:0.5;" width="411.1945" x="999" y="153"/><ellipse cx="1148.2675" cy="169" fill="#ADD1B2" rx="11" ry="11" style="stroke:#181818;stroke-width:1;"/><path d="M1151.2362,174.6406 Q1150.6581,174.9375 1150.0175,175.0781 Q1149.3769,175.2344 1148.6737,175.2344 Q1146.1737,175.2344 1144.8456,173.5938 Q1143.5331,171.9375 1143.5331,168.8125 Q1143.5331,165.6875 1144.8456,164.0313 Q1146.1737,162.375 1148.6737,162.375 Q1149.3769,162.375 1150.0175,162.5313 Q1150.6737,162.6875 1151.2362,162.9844 L1151.2362,165.7031 Q1150.6112,165.125 1150.0175,164.8594 Q1149.4237,164.5781 1148.7987,164.5781 Q1147.455,164.5781 1146.7675,165.6563 Q1146.08,166.7188 1146.08,168.8125 Q1146.08,170.9063 1146.7675,171.9844 Q1147.455,173.0469 1148.7987,173.0469 Q1149.4237,173.0469 1150.0175,172.7813 Q1150.6112,172.5 1151.2362,171.9219 L1151.2362,174.6406 Z " fill="#000000"/><text fill="#000000" font-family="sans-serif" font-size="14" lengthAdjust="spacing" textLength="104.1596" x="1168.7675" y="174.432">ExpressDelivery</text><line style="stroke:#181818;stroke-width:0.5;" x1="1000" x2="1409.1945" y1="185" y2="185"/><rect fill="none" height="6" style="stroke:#C82930;stroke-width:1;" width="6" x="1007" y="197.034"/><text fill="#000000" font-family="sans-serif" font-size="14" lengthAdjust="spacing" textLength="139.4535" x="1019" y="203.9659">deliveryStatus: String</text><rect fill="none" height="6" style="stroke:#C82930;stroke-width:1;" width="6" x="1007" y="216.1019"/><text fill="#000000" font-family="sans-serif" font-size="14" lengthAdjust="spacing" textLength="99.2316" x="1019" y="223.0339">location: String</text><line style="stroke:#181818;stroke-width:0.5;" x1="1000" x2="1409.1945" y1="231.1358" y2="231.1358"/><text fill="#000000" font-family="sans-serif" font-size="14" lengthAdjust="spacing" textLength="211.7912" x="1019" y="250.1018">ExpressDelivery(location: String)</text><ellipse cx="1010" cy="265.2377" fill="#84BE84" rx="3" ry="3" style="stroke:#038048;stroke-width:1;"/><text fill="#000000" font-family="sans-serif" font-size="14" lengthAdjust="spacing" textLength="266.405" x="1019" y="269.1697">changeDeliveryStatus(newStatus: String)</text><ellipse cx="1010" cy="284.3056" fill="#84BE84" rx="3" ry="3" style="stroke:#038048;stroke-width:1;"/><text fill="#000000" font-family="sans-serif" font-size="14" lengthAdjust="spacing" textLength="151.8014" x="1019" y="288.2376">deliveryDetails(): String</text><ellipse cx="1010" cy="303.3735" fill="#84BE84" rx="3" ry="3" style="stroke:#038048;stroke-width:1;"/><text fill="#000000" font-family="sans-serif" font-size="14" lengthAdjust="spacing" textLength="122.7655" x="1019" y="307.3055">deliveryFee(): Float</text><ellipse cx="1010" cy="322.4415" fill="#84BE84" rx="3" ry="3" style="stroke:#038048;stroke-width:1;"/><text fill="#000000" font-family="sans-serif" font-size="14" lengthAdjust="spacing" textLength="385.1945" x="1019" y="326.3734">estimatedDeliveryDate(processDate: LocalDate): LocalDate</text></g><!--class ExpressShipment--><g class="entity" data-entity="ExpressShipment" data-source-line="46" data-uid="ent0008" id="entity_ExpressShipment"><rect fill="#F1F1F1" height="86.1358" rx="2.5" ry="2.5" style="stroke:#181818;stroke-width:0.5;" width="561.246" x="676" y="7"/><ellipse cx="895.3022" cy="23" fill="#ADD1B2" rx="11" ry="11" style="stroke:#181818;stroke-width:1;"/><path d="M898.271,28.6406 Q897.6928,28.9375 897.0522,29.0781 Q896.4116,29.2344 895.7085,29.2344 Q893.2085,29.2344 891.8803,27.5938 Q890.5678,25.9375 890.5678,22.8125 Q890.5678,19.6875 891.8803,18.0313 Q893.2085,16.375 895.7085,16.375 Q896.4116,16.375 897.0522,16.5313 Q897.7085,16.6875 898.271,16.9844 L898.271,19.7031 Q897.646,19.125 897.0522,18.8594 Q896.4585,18.5781 895.8335,18.5781 Q894.4897,18.5781 893.8022,19.6563 Q893.1147,20.7188 893.1147,22.8125 Q893.1147,24.9063 893.8022,25.9844 Q894.4897,27.0469 895.8335,27.0469 Q896.4585,27.0469 897.0522,26.7813 Q897.646,26.5 898.271,25.9219 L898.271,28.6406 Z " fill="#000000"/><text fill="#000000" font-family="sans-serif" font-size="14" lengthAdjust="spacing" textLength="114.1416" x="915.8022" y="28.432">ExpressShipment</text><line style="stroke:#181818;stroke-width:0.5;" x1="677" x2="1236.246" y1="39" y2="39"/><line style="stroke:#181818;stroke-width:0.5;" x1="677" x2="1236.246" y1="47" y2="47"/><text fill="#000000" font-family="sans-serif" font-size="14" lengthAdjust="spacing" textLength="535.246" x="696" y="65.9659">ExpressShipment(orderList: List&lt;Order&gt;, processDate: LocalDate, location: String)</text><ellipse cx="687" cy="81.1019" fill="#84BE84" rx="3" ry="3" style="stroke:#038048;stroke-width:1;"/><text fill="#000000" font-family="sans-serif" font-size="14" lengthAdjust="spacing" textLength="300.0048" x="696" y="85.0339">newDelivery(location: String): ExpressDelivery</text></g><!--link StandardDelivery to Delivery--><g class="link" data-entity-1="StandardDelivery" data-entity-2="Delivery" data-source-line="20" data-uid="lnk4" id="link_StandardDelivery_Delivery"><path codeLine="20" d="M418.18,331.79 C467.32,352.64 502.1696,367.4399 547.8496,386.8199" fill="none" id="StandardDelivery-to-Delivery" style="stroke:#181818;stroke-width:1;stroke-dasharray:7,7;"/><polygon fill="none" points="564.42,393.85,550.193,381.2965,545.5062,392.3434,564.42,393.85" style="stroke:#181818;stroke-width:1;"/></g><!--link ExpressDelivery to Delivery--><g class="link" data-entity-1="ExpressDelivery" data-entity-2="Delivery" data-source-line="44" data-uid="lnk7" id="link_ExpressDelivery_Delivery"><path codeLine="44" d="M998.82,331.79 C949.68,352.64 914.8304,367.4399 869.1504,386.8199" fill="none" id="ExpressDelivery-to-Delivery" style="stroke:#181818;stroke-width:1;stroke-dasharray:7,7;"/><polygon fill="none" points="852.58,393.85,871.4938,392.3434,866.807,381.2965,852.58,393.85" style="stroke:#181818;stroke-width:1;"/></g><!--link ExpressShipment to Shipment--><g class="link" data-entity-1="ExpressShipment" data-entity-2="Shipment" data-source-line="51" data-uid="lnk9" id="link_ExpressShipment_Shipment"><path codeLine="51" d="M902.08,93.03 C879.19,110.7 865.8763,120.978 838.8263,141.868" fill="none" id="ExpressShipment-to-Shipment" style="stroke:#181818;stroke-width:1;"/><polygon fill="none" points="824.58,152.87,842.4936,146.6167,835.1589,137.1192,824.58,152.87" style="stroke:#181818;stroke-width:1;"/></g><!--link Shipment to Delivery--><g class="link" data-entity-1="Shipment" data-entity-2="Delivery" data-source-line="53" data-uid="lnk10" id="link_Shipment_Delivery"><path codeLine="53" d="M708.5,334.08 C708.5,354.22 708.5,369.14 708.5,387.81" fill="none" id="Shipment-to-Delivery" style="stroke:#181818;stroke-width:1;stroke-dasharray:7,7;"/><polygon fill="#181818" points="708.5,393.81,712.5,384.81,708.5,388.81,704.5,384.81,708.5,393.81" style="stroke:#181818;stroke-width:1;"/></g><!--link ExpressShipment to ExpressDelivery--><g class="link" data-entity-1="ExpressShipment" data-entity-2="ExpressDelivery" data-source-line="54" data-uid="lnk11" id="link_ExpressShipment_ExpressDelivery"><path codeLine="54" d="M1010.92,93.03 C1033.81,110.7 1056.6212,128.3127 1083.6712,149.2027" fill="none" id="ExpressShipment-to-ExpressDelivery" style="stroke:#181818;stroke-width:1;stroke-dasharray:7,7;"/><polygon fill="#181818" points="1088.42,152.87,1083.7418,144.2032,1084.4627,149.8139,1078.852,150.5348,1088.42,152.87" style="stroke:#181818;stroke-width:1;"/></g><!--SRC=[vLBBQiCm4BphAmIzs2Js1vYIavjJ885yWP2tYK2HZBHjMjh-UoKY-R4uzD9BgGzcjG_DpcYKGN3FGW9lGQjNSE_iW_7mhRWy2tE2d3wYm1TV6BZUeeOVqIbpAbDtb_fQGA6qByhSGEfRW5ZRQYimbS2ZkWY4BcEruL3qpahmFiODtrafT0pBISo-66DI2-y3b32TS1qXGTE53hEeh9blNmtRpRcb8XtwG_fG0NXTVsx6fyxgdLL_0ODPjNGihEl0xPJ7S6duF-xZURFcoz1hlgpkmy2j6P5lXMM0L5n6IPe4dUy_Ai5PSPyOtHCVBGfzS4fEj1_DzVJMkxZ8t5ia- - -iHVWlEoir4OEHx2_vx4TJq7SSEEH5U5K53iEoRCZNzOGQ7Of5SlKt]--></g></svg>