<svg xmlns="http://www.w3.org/2000/svg" xmlns:xlink="http://www.w3.org/1999/xlink" contentStyleType="text/css" data-diagram-type="CLASS" height="303px" preserveAspectRatio="none" style="width:507px;height:303px;background:#FFFFFF;" version="1.1" viewBox="0 0 507 303" width="507px" zoomAndPan="magnify"><defs/><g><!--class Monster--><g class="entity" data-entity="Monster" data-source-line="1" data-uid="ent0002" id="entity_Monster"><rect fill="#F1F1F1" height="86.1358" rx="2.5" ry="2.5" style="stroke:#181818;stroke-width:0.5;" width="99.9477" x="199" y="210"/><ellipse cx="221.6193" cy="226" fill="#B4A7E5" rx="11" ry="11" style="stroke:#181818;stroke-width:1;"/><path d="M217.5412,221.7656 L217.5412,219.6094 L224.9318,219.6094 L224.9318,221.7656 L222.4631,221.7656 L222.4631,229.8438 L224.9318,229.8438 L224.9318,232 L217.5412,232 L217.5412,229.8438 L220.01,229.8438 L220.01,221.7656 L217.5412,221.7656 Z " fill="#000000"/><text fill="#000000" font-family="sans-serif" font-size="14" font-style="italic" lengthAdjust="spacing" textLength="51.0158" x="237.3125" y="231.432">Monster</text><line style="stroke:#181818;stroke-width:0.5;" x1="200" x2="297.9477" y1="242" y2="242"/><line style="stroke:#181818;stroke-width:0.5;" x1="200" x2="297.9477" y1="250" y2="250"/><ellipse cx="210" cy="265.034" fill="#84BE84" rx="3" ry="3" style="stroke:#038048;stroke-width:1;"/><text fill="#000000" font-family="sans-serif" font-size="14" lengthAdjust="spacing" textLength="73.9477" x="219" y="268.9659">announce()</text><ellipse cx="210" cy="284.1019" fill="#84BE84" rx="3" ry="3" style="stroke:#038048;stroke-width:1;"/><text fill="#000000" font-family="sans-serif" font-size="14" lengthAdjust="spacing" textLength="44.9678" x="219" y="288.0339">move()</text></g><!--class NormalBokoblin--><g class="entity" data-entity="NormalBokoblin" data-source-line="8" data-uid="ent0003" id="entity_NormalBokoblin"><rect fill="#F1F1F1" height="143.3396" rx="2.5" ry="2.5" style="stroke:#181818;stroke-width:0.5;" width="141.8495" x="7" y="7"/><ellipse cx="23.08" cy="23" fill="#ADD1B2" rx="11" ry="11" style="stroke:#181818;stroke-width:1;"/><path d="M26.0487,28.6406 Q25.4706,28.9375 24.83,29.0781 Q24.1894,29.2344 23.4862,29.2344 Q20.9862,29.2344 19.6581,27.5938 Q18.3456,25.9375 18.3456,22.8125 Q18.3456,19.6875 19.6581,18.0313 Q20.9862,16.375 23.4862,16.375 Q24.1894,16.375 24.83,16.5313 Q25.4862,16.6875 26.0487,16.9844 L26.0487,19.7031 Q25.4237,19.125 24.83,18.8594 Q24.2362,18.5781 23.6112,18.5781 Q22.2675,18.5781 21.58,19.6563 Q20.8925,20.7188 20.8925,22.8125 Q20.8925,24.9063 21.58,25.9844 Q22.2675,27.0469 23.6112,27.0469 Q24.2362,27.0469 24.83,26.7813 Q25.4237,26.5 26.0487,25.9219 L26.0487,28.6406 Z " fill="#000000"/><text fill="#000000" font-family="sans-serif" font-size="14" lengthAdjust="spacing" textLength="107.4496" x="37.32" y="28.432">NormalBokoblin</text><line style="stroke:#181818;stroke-width:0.5;" x1="8" x2="147.8495" y1="39" y2="39"/><line style="stroke:#181818;stroke-width:0.5;" x1="8" x2="147.8495" y1="47" y2="47"/><text fill="#000000" font-family="sans-serif" font-size="14" lengthAdjust="spacing" textLength="115.8495" x="27" y="65.9659">NormalBokoblin()</text><ellipse cx="18" cy="81.1019" fill="#84BE84" rx="3" ry="3" style="stroke:#038048;stroke-width:1;"/><text fill="#000000" font-family="sans-serif" font-size="14" lengthAdjust="spacing" textLength="73.9477" x="27" y="85.0339">announce()</text><ellipse cx="18" cy="100.1698" fill="#84BE84" rx="3" ry="3" style="stroke:#038048;stroke-width:1;"/><text fill="#000000" font-family="sans-serif" font-size="14" lengthAdjust="spacing" textLength="71.5117" x="27" y="104.1018">bludgeon()</text><ellipse cx="18" cy="119.2377" fill="#84BE84" rx="3" ry="3" style="stroke:#038048;stroke-width:1;"/><text fill="#000000" font-family="sans-serif" font-size="14" lengthAdjust="spacing" textLength="54.8798" x="27" y="123.1697">defend()</text><ellipse cx="18" cy="138.3056" fill="#84BE84" rx="3" ry="3" style="stroke:#038048;stroke-width:1;"/><text fill="#000000" font-family="sans-serif" font-size="14" lengthAdjust="spacing" textLength="44.9678" x="27" y="142.2376">move()</text></g><!--class NormalMoblin--><g class="entity" data-entity="NormalMoblin" data-source-line="18" data-uid="ent0005" id="entity_NormalMoblin"><rect fill="#F1F1F1" height="143.3396" rx="2.5" ry="2.5" style="stroke:#181818;stroke-width:0.5;" width="129.5016" x="184" y="7"/><ellipse cx="200.08" cy="23" fill="#ADD1B2" rx="11" ry="11" style="stroke:#181818;stroke-width:1;"/><path d="M203.0487,28.6406 Q202.4706,28.9375 201.83,29.0781 Q201.1894,29.2344 200.4862,29.2344 Q197.9862,29.2344 196.6581,27.5938 Q195.3456,25.9375 195.3456,22.8125 Q195.3456,19.6875 196.6581,18.0313 Q197.9862,16.375 200.4862,16.375 Q201.1894,16.375 201.83,16.5313 Q202.4862,16.6875 203.0487,16.9844 L203.0487,19.7031 Q202.4237,19.125 201.83,18.8594 Q201.2362,18.5781 200.6112,18.5781 Q199.2675,18.5781 198.58,19.6563 Q197.8925,20.7188 197.8925,22.8125 Q197.8925,24.9063 198.58,25.9844 Q199.2675,27.0469 200.6112,27.0469 Q201.2362,27.0469 201.83,26.7813 Q202.4237,26.5 203.0487,25.9219 L203.0487,28.6406 Z " fill="#000000"/><text fill="#000000" font-family="sans-serif" font-size="14" lengthAdjust="spacing" textLength="95.1016" x="214.32" y="28.432">NormalMoblin</text><line style="stroke:#181818;stroke-width:0.5;" x1="185" x2="312.5016" y1="39" y2="39"/><line style="stroke:#181818;stroke-width:0.5;" x1="185" x2="312.5016" y1="47" y2="47"/><text fill="#000000" font-family="sans-serif" font-size="14" lengthAdjust="spacing" textLength="103.5016" x="204" y="65.9659">NormalMoblin()</text><ellipse cx="195" cy="81.1019" fill="#84BE84" rx="3" ry="3" style="stroke:#038048;stroke-width:1;"/><text fill="#000000" font-family="sans-serif" font-size="14" lengthAdjust="spacing" textLength="73.9477" x="204" y="85.0339">announce()</text><ellipse cx="195" cy="100.1698" fill="#84BE84" rx="3" ry="3" style="stroke:#038048;stroke-width:1;"/><text fill="#000000" font-family="sans-serif" font-size="14" lengthAdjust="spacing" textLength="33.6839" x="204" y="104.1018">kick()</text><ellipse cx="195" cy="119.2377" fill="#84BE84" rx="3" ry="3" style="stroke:#038048;stroke-width:1;"/><text fill="#000000" font-family="sans-serif" font-size="14" lengthAdjust="spacing" textLength="44.9678" x="204" y="123.1697">move()</text><ellipse cx="195" cy="138.3056" fill="#84BE84" rx="3" ry="3" style="stroke:#038048;stroke-width:1;"/><text fill="#000000" font-family="sans-serif" font-size="14" lengthAdjust="spacing" textLength="36.6239" x="204" y="142.2376">stab()</text></g><!--class NormalLizalflos--><g class="entity" data-entity="NormalLizalflos" data-source-line="28" data-uid="ent0007" id="entity_NormalLizalflos"><rect fill="#F1F1F1" height="143.3396" rx="2.5" ry="2.5" style="stroke:#181818;stroke-width:0.5;" width="151.2855" x="349.5" y="7"/><ellipse cx="372.258" cy="23" fill="#ADD1B2" rx="11" ry="11" style="stroke:#181818;stroke-width:1;"/><path d="M375.2267,28.6406 Q374.6486,28.9375 374.008,29.0781 Q373.3673,29.2344 372.6642,29.2344 Q370.1642,29.2344 368.8361,27.5938 Q367.5236,25.9375 367.5236,22.8125 Q367.5236,19.6875 368.8361,18.0313 Q370.1642,16.375 372.6642,16.375 Q373.3673,16.375 374.008,16.5313 Q374.6642,16.6875 375.2267,16.9844 L375.2267,19.7031 Q374.6017,19.125 374.008,18.8594 Q373.4142,18.5781 372.7892,18.5781 Q371.4455,18.5781 370.758,19.6563 Q370.0705,20.7188 370.0705,22.8125 Q370.0705,24.9063 370.758,25.9844 Q371.4455,27.0469 372.7892,27.0469 Q373.4142,27.0469 374.008,26.7813 Q374.6017,26.5 375.2267,25.9219 L375.2267,28.6406 Z " fill="#000000"/><text fill="#000000" font-family="sans-serif" font-size="14" lengthAdjust="spacing" textLength="102.0456" x="387.982" y="28.432">NormalLizalflos</text><line style="stroke:#181818;stroke-width:0.5;" x1="350.5" x2="499.7855" y1="39" y2="39"/><line style="stroke:#181818;stroke-width:0.5;" x1="350.5" x2="499.7855" y1="47" y2="47"/><text fill="#000000" font-family="sans-serif" font-size="14" lengthAdjust="spacing" textLength="110.4456" x="369.5" y="65.9659">NormalLizalflos()</text><ellipse cx="360.5" cy="81.1019" fill="#84BE84" rx="3" ry="3" style="stroke:#038048;stroke-width:1;"/><text fill="#000000" font-family="sans-serif" font-size="14" lengthAdjust="spacing" textLength="73.9477" x="369.5" y="85.0339">announce()</text><ellipse cx="360.5" cy="100.1698" fill="#84BE84" rx="3" ry="3" style="stroke:#038048;stroke-width:1;"/><text fill="#000000" font-family="sans-serif" font-size="14" lengthAdjust="spacing" textLength="37.1698" x="369.5" y="104.1018">hide()</text><ellipse cx="360.5" cy="119.2377" fill="#84BE84" rx="3" ry="3" style="stroke:#038048;stroke-width:1;"/><text fill="#000000" font-family="sans-serif" font-size="14" lengthAdjust="spacing" textLength="44.9678" x="369.5" y="123.1697">move()</text><ellipse cx="360.5" cy="138.3056" fill="#84BE84" rx="3" ry="3" style="stroke:#038048;stroke-width:1;"/><text fill="#000000" font-family="sans-serif" font-size="14" lengthAdjust="spacing" textLength="125.2855" x="369.5" y="142.2376">throwBoomerang()</text></g><!--link NormalBokoblin to Monster--><g class="link" data-entity-1="NormalBokoblin" data-entity-2="Monster" data-source-line="16" data-uid="lnk4" id="link_NormalBokoblin_Monster"><path codeLine="16" d="M148.05,150.16 C168.15,170.44 176.7655,179.1388 194.5855,197.1088" fill="none" id="NormalBokoblin-to-Monster" style="stroke:#181818;stroke-width:1;stroke-dasharray:7,7;"/><polygon fill="none" points="207.26,209.89,198.8459,192.884,190.3251,201.3337,207.26,209.89" style="stroke:#181818;stroke-width:1;"/></g><!--link NormalMoblin to Monster--><g class="link" data-entity-1="NormalMoblin" data-entity-2="Monster" data-source-line="26" data-uid="lnk6" id="link_NormalMoblin_Monster"><path codeLine="26" d="M249,150.16 C249,170.44 249,173.92 249,191.89" fill="none" id="NormalMoblin-to-Monster" style="stroke:#181818;stroke-width:1;stroke-dasharray:7,7;"/><polygon fill="none" points="249,209.89,255,191.89,243,191.89,249,209.89" style="stroke:#181818;stroke-width:1;"/></g><!--link NormalLizalflos to Monster--><g class="link" data-entity-1="NormalLizalflos" data-entity-2="Monster" data-source-line="36" data-uid="lnk8" id="link_NormalLizalflos_Monster"><path codeLine="36" d="M352.91,150.16 C332.21,170.44 323.157,179.3224 304.817,197.2924" fill="none" id="NormalLizalflos-to-Monster" style="stroke:#181818;stroke-width:1;stroke-dasharray:7,7;"/><polygon fill="none" points="291.96,209.89,309.0161,201.5781,300.6178,193.0068,291.96,209.89" style="stroke:#181818;stroke-width:1;"/></g><!--SRC=[XOvD3e8m44RtFKMN6XEEu8ArzGv3EuM6CfEqe8a_TnSZgHGqTDNvClEzvwZ7O46ZL4nn_8kxaECxI23YWJJkzbFGyUKzF8KGsaECyioX0rzoovLtD1tcOJfUjLL-C3NoTyEWHJ9hMbueY-9nJAwPY5fhg0s9rkbsIVmCiOTgXbTRy9ExWRUUOyPFwN-5nXdyhT0tWQybSuS1g9x9fDQ5pmi0]--></g></svg>